<?xml version="1.0" encoding="UTF-8" standalone="no"?>
<!DOCTYPE svg PUBLIC "-//W3C//DTD SVG 1.1//EN" "http://www.w3.org/Graphics/SVG/1.1/DTD/svg11.dtd">
<svg xmlns="http://www.w3.org/2000/svg" version="1.1" viewBox="0.00 0.00 260.00 160.00">
<g stroke-width="2.00" fill="none" stroke-linecap="butt">
<path stroke="#808080" vector-effect="non-scaling-stroke" d="
  M 17.56 24.26
  Q 17.08 25.10 16.98 25.92
  Q 16.93 26.44 17.44 26.51
  Q 18.58 26.66 19.01 26.99
  Q 39.17 42.12 45.57 46.69
  C 48.05 48.46 51.68 50.28 54.56 52.43
  Q 73.65 66.65 92.81 80.82
  A 1.33 1.28 -28.6 0 0 93.72 81.07
  Q 96.72 80.73 99.57 81.39
  C 102.97 82.18 105.36 81.98 108.57 82.01
  A 1.51 1.44 58.3 0 1 109.29 82.20
  Q 112.21 83.89 115.29 82.44
  Q 115.77 82.21 116.30 82.30
  Q 122.74 83.31 129.14 84.67
  C 132.30 85.34 134.31 84.26 135.29 81.29
  A 1.09 1.06 47.5 0 0 135.31 80.68
  L 131.93 68.30
  Q 131.78 67.75 131.22 67.75
  L 130.78 67.75
  A 1.06 1.05 -21.8 0 1 130.02 67.43
  Q 122.55 59.99 115.26 52.38
  C 113.96 51.01 111.72 51.12 110.09 50.29
  Q 92.39 41.26 74.78 32.07
  Q 73.12 31.20 70.16 28.82
  Q 66.77 26.09 62.37 24.90
  A 1.57 1.54 -45.7 0 0 61.49 24.92
  Q 58.09 26.01 56.69 22.81
  A 0.91 0.90 81.3 0 0 55.97 22.28
  Q 52.62 21.91 51.73 22.30
  Q 47.51 24.12 42.99 24.34
  C 37.21 24.62 31.90 21.43 27.20 18.18
  Q 26.77 17.88 26.25 17.98
  Q 24.65 18.29 24.21 16.90
  A 1.04 1.03 -86.8 0 0 23.64 16.26
  L 14.24 12.07
  A 2.35 2.35 0.0 0 0 11.04 13.53
  Q 10.18 16.35 10.87 18.99
  Q 10.98 19.42 10.75 19.80
  L 10.52 20.19
  Q 10.25 20.63 10.76 20.70
  Q 12.20 20.88 13.14 22.08
  A 1.06 1.04 71.4 0 0 13.95 22.49
  L 15.37 22.53
  Q 15.88 22.54 16.03 23.03
  Q 16.36 24.15 17.56 24.26"
/>
<path stroke="#808080" vector-effect="non-scaling-stroke" d="
  M 17.56 24.26
  L 19.55 21.64
  A 0.22 0.22 0.0 0 0 19.28 21.30
  L 16.96 22.40
  Q 16.60 22.57 16.79 22.92
  L 17.56 24.26"
/>
<path stroke="#808080" vector-effect="non-scaling-stroke" d="
  M 19.82 18.96
  Q 22.02 19.70 23.89 18.12
  Q 24.36 17.72 23.79 17.47
  L 15.99 14.04
  Q 15.46 13.81 14.90 13.93
  Q 14.07 14.11 13.98 13.07
  A 0.81 0.81 0.0 0 0 12.42 12.86
  Q 11.28 15.99 11.91 18.65
  C 12.86 22.59 17.79 22.27 19.41 19.13
  Q 19.54 18.87 19.82 18.96"
/>
<path stroke="#808080" vector-effect="non-scaling-stroke" d="
  M 35.73 29.19
  C 32.92 29.01 26.40 32.11 26.06 26.79
  C 25.82 22.87 30.10 22.12 32.95 23.91
  Q 33.10 24.01 33.21 24.00
  Q 33.40 24.00 33.55 23.85
  Q 33.84 23.56 33.46 23.39
  L 24.60 19.42
  A 1.41 1.41 0.0 0 0 23.33 19.48
  Q 20.77 20.92 19.75 23.70
  A 0.88 0.87 -61.7 0 0 20.05 24.71
  L 32.63 34.05
  A 0.63 0.63 0.0 0 0 33.54 33.87
  L 36.03 29.78
  Q 36.36 29.23 35.73 29.19"
/>
<path stroke="#808080" vector-effect="non-scaling-stroke" d="
  M 54.37 26.99
  Q 52.30 27.38 51.84 25.44
  Q 51.72 24.94 51.99 24.50
  L 52.49 23.71
  A 0.32 0.32 0.0 0 0 52.08 23.25
  C 47.56 25.32 39.28 26.21 34.35 25.14
  Q 31.68 24.56 28.99 24.07
  Q 28.68 24.01 28.51 24.10
  Q 28.25 24.24 28.24 24.59
  Q 28.23 25.20 28.82 25.01
  Q 30.62 24.40 31.74 25.95
  Q 32.10 26.44 31.78 26.95
  Q 30.63 28.84 28.59 28.06
  Q 28.05 27.85 28.02 27.27
  L 27.90 25.24
  A 0.37 0.37 0.0 0 0 27.16 25.20
  C 26.19 31.18 33.29 28.16 36.06 28.06
  C 40.89 27.88 46.51 26.97 51.24 27.48
  C 52.67 27.63 54.93 28.37 55.90 26.79
  A 0.35 0.35 0.0 0 0 55.67 26.26
  Q 55.31 26.19 55.05 26.56
  Q 54.80 26.91 54.37 26.99"
/>
<path stroke="#808080" vector-effect="non-scaling-stroke" d="
  M 56.21 24.91
  L 56.30 25.69
  A 0.01 0.01 0.0 0 0 56.31 25.70
  Q 56.97 25.83 56.97 25.07
  A 0.17 0.13 -73.4 0 0 56.93 24.96
  L 55.41 23.10
  A 0.44 0.36 -87.8 0 0 54.88 23.70
  Q 55.19 24.15 55.68 24.28
  Q 56.16 24.41 56.21 24.91"
/>
<path stroke="#808080" vector-effect="non-scaling-stroke" d="
  M 54.02 24.18
  Q 53.20 23.99 53.02 24.82
  Q 52.80 25.91 53.83 26.18
  A 0.85 0.85 0.0 0 0 54.89 25.31
  Q 54.84 24.37 54.02 24.18"
/>
<path stroke="#808080" vector-effect="non-scaling-stroke" d="
  M 29.00 27.05
  L 29.25 27.38
  A 0.66 0.66 0.0 0 0 30.38 27.28
  Q 30.83 26.35 30.05 25.89
  A 0.80 0.80 0.0 0 0 29.00 27.05"
/>
<path stroke="#808080" vector-effect="non-scaling-stroke" d="
  M 58.36 28.80
  L 59.30 26.72
  A 0.41 0.41 0.0 0 0 59.09 26.18
  L 58.96 26.12
  A 1.55 1.42 24.3 0 0 56.97 26.78
  L 56.86 27.02
  A 1.55 1.42 24.3 0 0 57.69 28.95
  L 57.82 29.01
  A 0.41 0.41 0.0 0 0 58.36 28.80"
/>
<path stroke="#808080" vector-effect="non-scaling-stroke" d="
  M 68.8081 30.9273
  A 1.63 1.63 0.0 0 0 68.1495 28.7182
  L 64.0503 26.5018
  A 1.63 1.63 0.0 0 0 61.8413 27.1604
  L 60.0719 30.4327
  A 1.63 1.63 0.0 0 0 60.7305 32.6418
  L 64.8297 34.8582
  A 1.63 1.63 0.0 0 0 67.0387 34.1996
  L 68.8081 30.9273"
/>
<path stroke="#808080" vector-effect="non-scaling-stroke" d="
  M 59.64 28.25
  Q 59.12 28.62 59.25 29.24
  Q 59.39 29.95 59.72 29.30
  L 60.74 27.27
  A 0.24 0.24 0.0 0 0 60.35 27.00
  Q 60.06 27.31 59.97 27.73
  Q 59.90 28.05 59.64 28.25"
/>
<path stroke="#808080" vector-effect="non-scaling-stroke" d="
  M 65.18 35.97
  C 63.08 34.99 60.99 33.89 58.86 32.97
  A 1.39 1.38 88.1 0 1 58.15 32.30
  L 56.71 29.42
  A 0.90 0.88 -10.4 0 0 55.98 28.93
  L 48.03 28.34
  Q 46.71 28.24 47.90 28.82
  L 65.19 37.32
  Q 65.63 37.53 65.76 37.07
  Q 65.83 36.83 65.76 36.57
  Q 65.65 36.19 65.18 35.97"
/>
<path stroke="#808080" vector-effect="non-scaling-stroke" d="
  M 93.02 68.51
  C 97.25 66.91 102.42 69.57 103.13 74.27
  Q 103.21 74.78 103.65 75.04
  C 106.52 76.68 109.26 79.11 112.59 79.40
  C 120.29 80.09 126.93 80.05 128.97 70.90
  Q 129.08 70.38 128.60 70.15
  Q 86.50 49.68 44.50 28.99
  Q 42.94 28.22 37.85 29.33
  Q 37.40 29.43 37.16 29.82
  L 34.22 34.66
  Q 33.97 35.07 34.36 35.35
  L 86.33 73.91
  A 1.01 1.01 0.0 0 0 87.83 73.57
  C 88.95 71.47 90.76 69.37 93.02 68.51"
/>
<path stroke="#808080" vector-effect="non-scaling-stroke" d="
  M 87.19 39.68
  C 83.04 36.48 75.59 33.57 70.72 31.09
  Q 70.12 30.78 69.80 31.37
  L 68.01 34.66
  Q 67.69 35.25 68.29 35.56
  L 105.19 54.66
  A 0.61 0.61 0.0 0 0 106.02 54.39
  L 107.73 50.97
  Q 108.03 50.38 107.44 50.08
  L 87.47 39.85
  Q 87.33 39.78 87.19 39.68"
/>
<path stroke="#808080" vector-effect="non-scaling-stroke" d="
  M 102.94 54.72
  L 68.30 36.66
  A 0.88 0.88 0.0 0 0 67.09 37.79
  Q 67.51 38.76 68.95 39.43
  C 80.00 44.63 91.31 50.92 102.76 54.96
  Q 102.91 55.01 102.98 54.87
  Q 103.04 54.77 102.94 54.72"
/>
<path stroke="#808080" vector-effect="non-scaling-stroke" d="
  M 108.63 51.64
  Q 107.46 52.98 107.09 54.52
  Q 106.87 55.40 107.49 54.73
  Q 108.90 53.19 109.27 52.06
  Q 109.90 50.19 108.63 51.64"
/>
<path stroke="#808080" vector-effect="non-scaling-stroke" d="
  M 129.47 68.40
  C 124.53 63.37 119.93 58.42 114.51 53.23
  Q 112.78 51.57 110.49 52.38
  A 1.18 1.14 -87.8 0 0 109.82 53.02
  Q 108.80 55.47 106.68 57.01
  Q 106.15 57.38 106.73 57.67
  L 129.24 68.72
  A 0.20 0.20 0.0 0 0 129.47 68.40"
/>
<path stroke="#808080" vector-effect="non-scaling-stroke" d="
  M 99.56 71.19
  C 94.87 67.35 91.02 70.60 88.73 75.13
  Q 88.47 75.64 88.94 75.95
  L 90.94 77.30
  Q 91.51 77.68 91.40 77.00
  C 90.41 71.27 95.72 69.43 99.82 72.61
  A 0.42 0.42 0.0 0 0 100.50 72.24
  Q 100.39 71.25 99.56 71.19"
/>
<path stroke="#808080" vector-effect="non-scaling-stroke" d="
  M 118.14 81.64
  L 130.45 83.79
  A 3.19 3.19 0.0 0 0 134.07 79.77
  L 131.70 71.56
  A 0.37 0.37 0.0 0 0 131.04 71.47
  C 128.37 75.68 128.17 79.94 122.17 80.98
  C 121.04 81.17 119.20 80.71 118.11 81.03
  Q 116.82 81.41 118.14 81.64"
/>
<path stroke="#808080" vector-effect="non-scaling-stroke" d="
  M 110.85 80.80
  Q 103.93 76.14 96.58 72.15
  A 1.51 1.49 55.8 0 0 95.71 71.98
  C 90.39 72.61 91.87 79.52 96.08 80.07
  Q 96.49 80.13 96.77 79.82
  L 99.16 77.24
  Q 99.52 76.86 99.99 77.07
  L 111.13 82.14
  A 0.48 0.48 0.0 0 0 111.78 81.54
  Q 111.64 81.15 111.31 81.00
  Q 110.89 80.82 110.85 80.80"
/>
<path stroke="#808080" vector-effect="non-scaling-stroke" d="
  M 104.90 80.26
  Q 102.93 79.68 101.40 78.33
  A 1.38 1.33 -24.2 0 0 100.48 78.00
  Q 99.28 78.02 98.55 78.82
  Q 98.07 79.34 98.65 79.73
  Q 101.47 81.63 104.89 80.83
  A 0.30 0.29 46.4 0 0 104.90 80.26"
/>
<path stroke="#808080" vector-effect="non-scaling-stroke" d="
  M 17.5291 17.9026
  A 2.11 2.01 1.7 0 0 15.4796 15.8309
  A 2.11 2.01 1.7 0 0 13.3109 17.7774
  A 2.11 2.01 1.7 0 0 15.3604 19.8491
  A 2.11 2.01 1.7 0 0 17.5291 17.9026"
/>
<path stroke="#808080" vector-effect="non-scaling-stroke" d="
  M 15.43 16.92
  Q 14.72 16.85 14.54 17.47
  Q 14.47 17.72 14.61 18.02
  Q 14.70 18.21 14.79 18.35
  A 0.84 0.81 73.7 0 0 15.46 18.73
  Q 16.41 18.75 16.29 17.77
  A 0.97 0.97 0.0 0 0 15.43 16.92"
/>
<path stroke="#808080" vector-effect="non-scaling-stroke" d="
  M 82.95 38.12
  A 0.16 0.16 0.0 0 0 82.69 37.93
  L 81.45 39.18
  A 0.27 0.26 2.6 0 0 81.81 39.57
  Q 82.55 38.97 82.95 38.12"
/>
<path stroke="#808080" vector-effect="non-scaling-stroke" d="
  M 85.50 41.27
  A 0.50 0.50 0.0 0 0 85.65 42.25
  L 85.96 42.25
  Q 86.73 42.25 86.30 41.60
  Q 85.98 41.12 85.50 41.27"
/>
<path stroke="#808080" vector-effect="non-scaling-stroke" d="
  M 114.40 54.90
  L 112.53 53.09
  A 0.86 0.86 0.0 0 0 111.31 53.11
  L 110.45 54.01
  A 2.05 2.01 -46.0 0 0 110.47 56.88
  L 110.68 57.09
  A 2.05 2.01 -46.0 0 0 113.55 57.01
  L 114.42 56.11
  A 0.86 0.86 0.0 0 0 114.40 54.90"
/>
<path stroke="#808080" vector-effect="non-scaling-stroke" d="
  M 111.59 55.03
  A 0.42 0.42 0.0 0 0 111.40 55.81
  Q 112.03 56.18 112.72 55.92
  A 0.48 0.48 0.0 0 0 112.52 54.99
  L 111.59 55.03"
/>
<path stroke="#808080" vector-effect="non-scaling-stroke" d="
  M 132.9051 81.3259
  A 2.13 1.99 20.5 0 0 131.6069 78.7160
  A 2.13 1.99 20.5 0 0 128.9149 79.8341
  A 2.13 1.99 20.5 0 0 130.2131 82.4440
  A 2.13 1.99 20.5 0 0 132.9051 81.3259"
/>
<path stroke="#808080" vector-effect="non-scaling-stroke" d="
  M 97.87 75.46
  A 2.12 2.12 0.0 0 0 95.75 73.34
  A 2.12 2.12 0.0 0 0 93.63 75.46
  A 2.12 2.12 0.0 0 0 95.75 77.58
  A 2.12 2.12 0.0 0 0 97.87 75.46"
/>
<path stroke="#808080" vector-effect="non-scaling-stroke" d="
  M 95.45 76.49
  Q 96.33 76.69 96.79 75.69
  A 0.84 0.83 12.6 0 0 96.03 74.50
  L 95.31 74.50
  A 0.81 0.80 -0.7 0 0 94.50 75.32
  Q 94.52 76.28 95.45 76.49"
/>
<path stroke="#808080" vector-effect="non-scaling-stroke" d="
  M 131.48 79.87
  Q 130.80 79.32 130.19 79.75
  A 0.93 0.93 0.0 0 0 131.00 81.40
  Q 131.68 81.18 131.77 80.67
  Q 131.87 80.18 131.48 79.87"
/>
</g>
<path fill="#ffffff" d="
  M 0.00 0.00
  L 260.00 0.00
  L 260.00 160.00
  L 0.00 160.00
  L 0.00 0.00
  Z
  M 17.56 24.26
  Q 17.08 25.10 16.98 25.92
  Q 16.93 26.44 17.44 26.51
  Q 18.58 26.66 19.01 26.99
  Q 39.17 42.12 45.57 46.69
  C 48.05 48.46 51.68 50.28 54.56 52.43
  Q 73.65 66.65 92.81 80.82
  A 1.33 1.28 -28.6 0 0 93.72 81.07
  Q 96.72 80.73 99.57 81.39
  C 102.97 82.18 105.36 81.98 108.57 82.01
  A 1.51 1.44 58.3 0 1 109.29 82.20
  Q 112.21 83.89 115.29 82.44
  Q 115.77 82.21 116.30 82.30
  Q 122.74 83.31 129.14 84.67
  C 132.30 85.34 134.31 84.26 135.29 81.29
  A 1.09 1.06 47.5 0 0 135.31 80.68
  L 131.93 68.30
  Q 131.78 67.75 131.22 67.75
  L 130.78 67.75
  A 1.06 1.05 -21.8 0 1 130.02 67.43
  Q 122.55 59.99 115.26 52.38
  C 113.96 51.01 111.72 51.12 110.09 50.29
  Q 92.39 41.26 74.78 32.07
  Q 73.12 31.20 70.16 28.82
  Q 66.77 26.09 62.37 24.90
  A 1.57 1.54 -45.7 0 0 61.49 24.92
  Q 58.09 26.01 56.69 22.81
  A 0.91 0.90 81.3 0 0 55.97 22.28
  Q 52.62 21.91 51.73 22.30
  Q 47.51 24.12 42.99 24.34
  C 37.21 24.62 31.90 21.43 27.20 18.18
  Q 26.77 17.88 26.25 17.98
  Q 24.65 18.29 24.21 16.90
  A 1.04 1.03 -86.8 0 0 23.64 16.26
  L 14.24 12.07
  A 2.35 2.35 0.0 0 0 11.04 13.53
  Q 10.18 16.35 10.87 18.99
  Q 10.98 19.42 10.75 19.80
  L 10.52 20.19
  Q 10.25 20.63 10.76 20.70
  Q 12.20 20.88 13.14 22.08
  A 1.06 1.04 71.4 0 0 13.95 22.49
  L 15.37 22.53
  Q 15.88 22.54 16.03 23.03
  Q 16.36 24.15 17.56 24.26
  Z"
/>
<path fill="#000000" d="
  M 17.56 24.26
  L 19.55 21.64
  A 0.22 0.22 0.0 0 0 19.28 21.30
  L 16.96 22.40
  Q 16.60 22.57 16.79 22.92
  L 17.56 24.26
  Q 16.36 24.15 16.03 23.03
  Q 15.88 22.54 15.37 22.53
  L 13.95 22.49
  A 1.06 1.04 71.4 0 1 13.14 22.08
  Q 12.20 20.88 10.76 20.70
  Q 10.25 20.63 10.52 20.19
  L 10.75 19.80
  Q 10.98 19.42 10.87 18.99
  Q 10.18 16.35 11.04 13.53
  A 2.35 2.35 0.0 0 1 14.24 12.07
  L 23.64 16.26
  A 1.04 1.03 -86.8 0 1 24.21 16.90
  Q 24.65 18.29 26.25 17.98
  Q 26.77 17.88 27.20 18.18
  C 31.90 21.43 37.21 24.62 42.99 24.34
  Q 47.51 24.12 51.73 22.30
  Q 52.62 21.91 55.97 22.28
  A 0.91 0.90 81.3 0 1 56.69 22.81
  Q 58.09 26.01 61.49 24.92
  A 1.57 1.54 -45.7 0 1 62.37 24.90
  Q 66.77 26.09 70.16 28.82
  Q 73.12 31.20 74.78 32.07
  Q 92.39 41.26 110.09 50.29
  C 111.72 51.12 113.96 51.01 115.26 52.38
  Q 122.55 59.99 130.02 67.43
  A 1.06 1.05 -21.8 0 0 130.78 67.75
  L 131.22 67.75
  Q 131.78 67.75 131.93 68.30
  L 135.31 80.68
  A 1.09 1.06 47.5 0 1 135.29 81.29
  C 134.31 84.26 132.30 85.34 129.14 84.67
  Q 122.74 83.31 116.30 82.30
  Q 115.77 82.21 115.29 82.44
  Q 112.21 83.89 109.29 82.20
  A 1.51 1.44 58.3 0 0 108.57 82.01
  C 105.36 81.98 102.97 82.18 99.57 81.39
  Q 96.72 80.73 93.72 81.07
  A 1.33 1.28 -28.6 0 1 92.81 80.82
  Q 73.65 66.65 54.56 52.43
  C 51.68 50.28 48.05 48.46 45.57 46.69
  Q 39.17 42.12 19.01 26.99
  Q 18.58 26.66 17.44 26.51
  Q 16.93 26.44 16.98 25.92
  Q 17.08 25.10 17.56 24.26
  Z
  M 19.82 18.96
  Q 22.02 19.70 23.89 18.12
  Q 24.36 17.72 23.79 17.47
  L 15.99 14.04
  Q 15.46 13.81 14.90 13.93
  Q 14.07 14.11 13.98 13.07
  A 0.81 0.81 0.0 0 0 12.42 12.86
  Q 11.28 15.99 11.91 18.65
  C 12.86 22.59 17.79 22.27 19.41 19.13
  Q 19.54 18.87 19.82 18.96
  Z
  M 35.73 29.19
  C 32.92 29.01 26.40 32.11 26.06 26.79
  C 25.82 22.87 30.10 22.12 32.95 23.91
  Q 33.10 24.01 33.21 24.00
  Q 33.40 24.00 33.55 23.85
  Q 33.84 23.56 33.46 23.39
  L 24.60 19.42
  A 1.41 1.41 0.0 0 0 23.33 19.48
  Q 20.77 20.92 19.75 23.70
  A 0.88 0.87 -61.7 0 0 20.05 24.71
  L 32.63 34.05
  A 0.63 0.63 0.0 0 0 33.54 33.87
  L 36.03 29.78
  Q 36.36 29.23 35.73 29.19
  Z
  M 54.37 26.99
  Q 52.30 27.38 51.84 25.44
  Q 51.72 24.94 51.99 24.50
  L 52.49 23.71
  A 0.32 0.32 0.0 0 0 52.08 23.25
  C 47.56 25.32 39.28 26.21 34.35 25.14
  Q 31.68 24.56 28.99 24.07
  Q 28.68 24.01 28.51 24.10
  Q 28.25 24.24 28.24 24.59
  Q 28.23 25.20 28.82 25.01
  Q 30.62 24.40 31.74 25.95
  Q 32.10 26.44 31.78 26.95
  Q 30.63 28.84 28.59 28.06
  Q 28.05 27.85 28.02 27.27
  L 27.90 25.24
  A 0.37 0.37 0.0 0 0 27.16 25.20
  C 26.19 31.18 33.29 28.16 36.06 28.06
  C 40.89 27.88 46.51 26.97 51.24 27.48
  C 52.67 27.63 54.93 28.37 55.90 26.79
  A 0.35 0.35 0.0 0 0 55.67 26.26
  Q 55.31 26.19 55.05 26.56
  Q 54.80 26.91 54.37 26.99
  Z
  M 56.21 24.91
  L 56.30 25.69
  A 0.01 0.01 0.0 0 0 56.31 25.70
  Q 56.97 25.83 56.97 25.07
  A 0.17 0.13 -73.4 0 0 56.93 24.96
  L 55.41 23.10
  A 0.44 0.36 -87.8 0 0 54.88 23.70
  Q 55.19 24.15 55.68 24.28
  Q 56.16 24.41 56.21 24.91
  Z
  M 54.02 24.18
  Q 53.20 23.99 53.02 24.82
  Q 52.80 25.91 53.83 26.18
  A 0.85 0.85 0.0 0 0 54.89 25.31
  Q 54.84 24.37 54.02 24.18
  Z
  M 29.00 27.05
  L 29.25 27.38
  A 0.66 0.66 0.0 0 0 30.38 27.28
  Q 30.83 26.35 30.05 25.89
  A 0.80 0.80 0.0 0 0 29.00 27.05
  Z
  M 58.36 28.80
  L 59.30 26.72
  A 0.41 0.41 0.0 0 0 59.09 26.18
  L 58.96 26.12
  A 1.55 1.42 24.3 0 0 56.97 26.78
  L 56.86 27.02
  A 1.55 1.42 24.3 0 0 57.69 28.95
  L 57.82 29.01
  A 0.41 0.41 0.0 0 0 58.36 28.80
  Z
  M 68.8081 30.9273
  A 1.63 1.63 0.0 0 0 68.1495 28.7182
  L 64.0503 26.5018
  A 1.63 1.63 0.0 0 0 61.8413 27.1604
  L 60.0719 30.4327
  A 1.63 1.63 0.0 0 0 60.7305 32.6418
  L 64.8297 34.8582
  A 1.63 1.63 0.0 0 0 67.0387 34.1996
  L 68.8081 30.9273
  Z
  M 59.64 28.25
  Q 59.12 28.62 59.25 29.24
  Q 59.39 29.95 59.72 29.30
  L 60.74 27.27
  A 0.24 0.24 0.0 0 0 60.35 27.00
  Q 60.06 27.31 59.97 27.73
  Q 59.90 28.05 59.64 28.25
  Z
  M 65.18 35.97
  C 63.08 34.99 60.99 33.89 58.86 32.97
  A 1.39 1.38 88.1 0 1 58.15 32.30
  L 56.71 29.42
  A 0.90 0.88 -10.4 0 0 55.98 28.93
  L 48.03 28.34
  Q 46.71 28.24 47.90 28.82
  L 65.19 37.32
  Q 65.63 37.53 65.76 37.07
  Q 65.83 36.83 65.76 36.57
  Q 65.65 36.19 65.18 35.97
  Z
  M 93.02 68.51
  C 97.25 66.91 102.42 69.57 103.13 74.27
  Q 103.21 74.78 103.65 75.04
  C 106.52 76.68 109.26 79.11 112.59 79.40
  C 120.29 80.09 126.93 80.05 128.97 70.90
  Q 129.08 70.38 128.60 70.15
  Q 86.50 49.68 44.50 28.99
  Q 42.94 28.22 37.85 29.33
  Q 37.40 29.43 37.16 29.82
  L 34.22 34.66
  Q 33.97 35.07 34.36 35.35
  L 86.33 73.91
  A 1.01 1.01 0.0 0 0 87.83 73.57
  C 88.95 71.47 90.76 69.37 93.02 68.51
  Z
  M 87.19 39.68
  C 83.04 36.48 75.59 33.57 70.72 31.09
  Q 70.12 30.78 69.80 31.37
  L 68.01 34.66
  Q 67.69 35.25 68.29 35.56
  L 105.19 54.66
  A 0.61 0.61 0.0 0 0 106.02 54.39
  L 107.73 50.97
  Q 108.03 50.38 107.44 50.08
  L 87.47 39.85
  Q 87.33 39.78 87.19 39.68
  Z
  M 102.94 54.72
  L 68.30 36.66
  A 0.88 0.88 0.0 0 0 67.09 37.79
  Q 67.51 38.76 68.95 39.43
  C 80.00 44.63 91.31 50.92 102.76 54.96
  Q 102.91 55.01 102.98 54.87
  Q 103.04 54.77 102.94 54.72
  Z
  M 108.63 51.64
  Q 107.46 52.98 107.09 54.52
  Q 106.87 55.40 107.49 54.73
  Q 108.90 53.19 109.27 52.06
  Q 109.90 50.19 108.63 51.64
  Z
  M 129.47 68.40
  C 124.53 63.37 119.93 58.42 114.51 53.23
  Q 112.78 51.57 110.49 52.38
  A 1.18 1.14 -87.8 0 0 109.82 53.02
  Q 108.80 55.47 106.68 57.01
  Q 106.15 57.38 106.73 57.67
  L 129.24 68.72
  A 0.20 0.20 0.0 0 0 129.47 68.40
  Z
  M 99.56 71.19
  C 94.87 67.35 91.02 70.60 88.73 75.13
  Q 88.47 75.64 88.94 75.95
  L 90.94 77.30
  Q 91.51 77.68 91.40 77.00
  C 90.41 71.27 95.72 69.43 99.82 72.61
  A 0.42 0.42 0.0 0 0 100.50 72.24
  Q 100.39 71.25 99.56 71.19
  Z
  M 118.14 81.64
  L 130.45 83.79
  A 3.19 3.19 0.0 0 0 134.07 79.77
  L 131.70 71.56
  A 0.37 0.37 0.0 0 0 131.04 71.47
  C 128.37 75.68 128.17 79.94 122.17 80.98
  C 121.04 81.17 119.20 80.71 118.11 81.03
  Q 116.82 81.41 118.14 81.64
  Z
  M 110.85 80.80
  Q 103.93 76.14 96.58 72.15
  A 1.51 1.49 55.8 0 0 95.71 71.98
  C 90.39 72.61 91.87 79.52 96.08 80.07
  Q 96.49 80.13 96.77 79.82
  L 99.16 77.24
  Q 99.52 76.86 99.99 77.07
  L 111.13 82.14
  A 0.48 0.48 0.0 0 0 111.78 81.54
  Q 111.64 81.15 111.31 81.00
  Q 110.89 80.82 110.85 80.80
  Z
  M 104.90 80.26
  Q 102.93 79.68 101.40 78.33
  A 1.38 1.33 -24.2 0 0 100.48 78.00
  Q 99.28 78.02 98.55 78.82
  Q 98.07 79.34 98.65 79.73
  Q 101.47 81.63 104.89 80.83
  A 0.30 0.29 46.4 0 0 104.90 80.26
  Z"
/>
<path fill="#ffffff" d="
  M 19.41 19.13
  C 17.79 22.27 12.86 22.59 11.91 18.65
  Q 11.28 15.99 12.42 12.86
  A 0.81 0.81 0.0 0 1 13.98 13.07
  Q 14.07 14.11 14.90 13.93
  Q 15.46 13.81 15.99 14.04
  L 23.79 17.47
  Q 24.36 17.72 23.89 18.12
  Q 22.02 19.70 19.82 18.96
  Q 19.54 18.87 19.41 19.13
  Z
  M 17.5291 17.9026
  A 2.11 2.01 1.7 0 0 15.4796 15.8309
  A 2.11 2.01 1.7 0 0 13.3109 17.7774
  A 2.11 2.01 1.7 0 0 15.3604 19.8491
  A 2.11 2.01 1.7 0 0 17.5291 17.9026
  Z"
/>
<path fill="#000000" d="
  M 17.5291 17.9026
  A 2.11 2.01 1.7 0 1 15.3604 19.8491
  A 2.11 2.01 1.7 0 1 13.3109 17.7774
  A 2.11 2.01 1.7 0 1 15.4796 15.8309
  A 2.11 2.01 1.7 0 1 17.5291 17.9026
  Z
  M 15.43 16.92
  Q 14.72 16.85 14.54 17.47
  Q 14.47 17.72 14.61 18.02
  Q 14.70 18.21 14.79 18.35
  A 0.84 0.81 73.7 0 0 15.46 18.73
  Q 16.41 18.75 16.29 17.77
  A 0.97 0.97 0.0 0 0 15.43 16.92
  Z"
/>
<path fill="#ffffff" d="
  M 15.43 16.92
  A 0.97 0.97 0.0 0 1 16.29 17.77
  Q 16.41 18.75 15.46 18.73
  A 0.84 0.81 73.7 0 1 14.79 18.35
  Q 14.70 18.21 14.61 18.02
  Q 14.47 17.72 14.54 17.47
  Q 14.72 16.85 15.43 16.92
  Z"
/>
<path fill="#ffffff" d="
  M 26.06 26.79
  C 26.40 32.11 32.92 29.01 35.73 29.19
  Q 36.36 29.23 36.03 29.78
  L 33.54 33.87
  A 0.63 0.63 0.0 0 1 32.63 34.05
  L 20.05 24.71
  A 0.88 0.87 -61.7 0 1 19.75 23.70
  Q 20.77 20.92 23.33 19.48
  A 1.41 1.41 0.0 0 1 24.60 19.42
  L 33.46 23.39
  Q 33.84 23.56 33.55 23.85
  Q 33.40 24.00 33.21 24.00
  Q 33.10 24.01 32.95 23.91
  C 30.10 22.12 25.82 22.87 26.06 26.79
  Z"
/>
<path fill="#ffffff" d="
  M 17.56 24.26
  L 16.79 22.92
  Q 16.60 22.57 16.96 22.40
  L 19.28 21.30
  A 0.22 0.22 0.0 0 1 19.55 21.64
  L 17.56 24.26
  Z"
/>
<path fill="#ffffff" d="
  M 55.05 26.56
  Q 55.31 26.19 55.67 26.26
  A 0.35 0.35 0.0 0 1 55.90 26.79
  C 54.93 28.37 52.67 27.63 51.24 27.48
  C 46.51 26.97 40.89 27.88 36.06 28.06
  C 33.29 28.16 26.19 31.18 27.16 25.20
  A 0.37 0.37 0.0 0 1 27.90 25.24
  L 28.02 27.27
  Q 28.05 27.85 28.59 28.06
  Q 30.63 28.84 31.78 26.95
  Q 32.10 26.44 31.74 25.95
  Q 30.62 24.40 28.82 25.01
  Q 28.23 25.20 28.24 24.59
  Q 28.25 24.24 28.51 24.10
  Q 28.68 24.01 28.99 24.07
  Q 31.68 24.56 34.35 25.14
  C 39.28 26.21 47.56 25.32 52.08 23.25
  A 0.32 0.32 0.0 0 1 52.49 23.71
  L 51.99 24.50
  Q 51.72 24.94 51.84 25.44
  Q 52.30 27.38 54.37 26.99
  Q 54.80 26.91 55.05 26.56
  Z"
/>
<path fill="#ffffff" d="
  M 55.68 24.28
  Q 55.19 24.15 54.88 23.70
  A 0.44 0.36 -87.8 0 1 55.41 23.10
  L 56.93 24.96
  A 0.17 0.13 -73.4 0 1 56.97 25.07
  Q 56.97 25.83 56.31 25.70
  A 0.01 0.01 0.0 0 1 56.30 25.69
  L 56.21 24.91
  Q 56.16 24.41 55.68 24.28
  Z"
/>
<path fill="#ffffff" d="
  M 54.02 24.18
  Q 54.84 24.37 54.89 25.31
  A 0.85 0.85 0.0 0 1 53.83 26.18
  Q 52.80 25.91 53.02 24.82
  Q 53.20 23.99 54.02 24.18
  Z"
/>
<path fill="#ffffff" d="
  M 29.00 27.05
  A 0.80 0.80 0.0 0 1 30.05 25.89
  Q 30.83 26.35 30.38 27.28
  A 0.66 0.66 0.0 0 1 29.25 27.38
  L 29.00 27.05
  Z"
/>
<path fill="#ffffff" d="
  M 58.36 28.80
  A 0.41 0.41 0.0 0 1 57.82 29.01
  L 57.69 28.95
  A 1.55 1.42 24.3 0 1 56.86 27.02
  L 56.97 26.78
  A 1.55 1.42 24.3 0 1 58.96 26.12
  L 59.09 26.18
  A 0.41 0.41 0.0 0 1 59.30 26.72
  L 58.36 28.80
  Z"
/>
<rect fill="#ffffff" x="-3.96" y="-3.49" transform="translate(64.44,30.68) rotate(28.4)" width="7.92" height="6.98" rx="1.63"/>
<path fill="#ffffff" d="
  M 59.97 27.73
  Q 60.06 27.31 60.35 27.00
  A 0.24 0.24 0.0 0 1 60.74 27.27
  L 59.72 29.30
  Q 59.39 29.95 59.25 29.24
  Q 59.12 28.62 59.64 28.25
  Q 59.90 28.05 59.97 27.73
  Z"
/>
<path fill="#ffffff" d="
  M 58.86 32.97
  C 60.99 33.89 63.08 34.99 65.18 35.97
  Q 65.65 36.19 65.76 36.57
  Q 65.83 36.83 65.76 37.07
  Q 65.63 37.53 65.19 37.32
  L 47.90 28.82
  Q 46.71 28.24 48.03 28.34
  L 55.98 28.93
  A 0.90 0.88 -10.4 0 1 56.71 29.42
  L 58.15 32.30
  A 1.39 1.38 88.1 0 0 58.86 32.97
  Z"
/>
<path fill="#ffffff" d="
  M 103.13 74.27
  C 102.42 69.57 97.25 66.91 93.02 68.51
  C 90.76 69.37 88.95 71.47 87.83 73.57
  A 1.01 1.01 0.0 0 1 86.33 73.91
  L 34.36 35.35
  Q 33.97 35.07 34.22 34.66
  L 37.16 29.82
  Q 37.40 29.43 37.85 29.33
  Q 42.94 28.22 44.50 28.99
  Q 86.50 49.68 128.60 70.15
  Q 129.08 70.38 128.97 70.90
  C 126.93 80.05 120.29 80.09 112.59 79.40
  C 109.26 79.11 106.52 76.68 103.65 75.04
  Q 103.21 74.78 103.13 74.27
  Z"
/>
<path fill="#ffffff" d="
  M 87.47 39.85
  L 107.44 50.08
  Q 108.03 50.38 107.73 50.97
  L 106.02 54.39
  A 0.61 0.61 0.0 0 1 105.19 54.66
  L 68.29 35.56
  Q 67.69 35.25 68.01 34.66
  L 69.80 31.37
  Q 70.12 30.78 70.72 31.09
  C 75.59 33.57 83.04 36.48 87.19 39.68
  Q 87.33 39.78 87.47 39.85
  Z
  M 82.95 38.12
  A 0.16 0.16 0.0 0 0 82.69 37.93
  L 81.45 39.18
  A 0.27 0.26 2.6 0 0 81.81 39.57
  Q 82.55 38.97 82.95 38.12
  Z
  M 85.50 41.27
  A 0.50 0.50 0.0 0 0 85.65 42.25
  L 85.96 42.25
  Q 86.73 42.25 86.30 41.60
  Q 85.98 41.12 85.50 41.27
  Z"
/>
<path fill="#ffffff" d="
  M 68.30 36.66
  L 102.94 54.72
  Q 103.04 54.77 102.98 54.87
  Q 102.91 55.01 102.76 54.96
  C 91.31 50.92 80.00 44.63 68.95 39.43
  Q 67.51 38.76 67.09 37.79
  A 0.88 0.88 0.0 0 1 68.30 36.66
  Z"
/>
<path fill="#000000" d="
  M 82.95 38.12
  Q 82.55 38.97 81.81 39.57
  A 0.27 0.26 2.6 0 1 81.45 39.18
  L 82.69 37.93
  A 0.16 0.16 0.0 0 1 82.95 38.12
  Z"
/>
<path fill="#000000" d="
  M 85.50 41.27
  Q 85.98 41.12 86.30 41.60
  Q 86.73 42.25 85.96 42.25
  L 85.65 42.25
  A 0.50 0.50 0.0 0 1 85.50 41.27
  Z"
/>
<path fill="#ffffff" d="
  M 108.63 51.64
  Q 109.90 50.19 109.27 52.06
  Q 108.90 53.19 107.49 54.73
  Q 106.87 55.40 107.09 54.52
  Q 107.46 52.98 108.63 51.64
  Z"
/>
<path fill="#ffffff" d="
  M 114.51 53.23
  C 119.93 58.42 124.53 63.37 129.47 68.40
  A 0.20 0.20 0.0 0 1 129.24 68.72
  L 106.73 57.67
  Q 106.15 57.38 106.68 57.01
  Q 108.80 55.47 109.82 53.02
  A 1.18 1.14 -87.8 0 1 110.49 52.38
  Q 112.78 51.57 114.51 53.23
  Z
  M 114.40 54.90
  L 112.53 53.09
  A 0.86 0.86 0.0 0 0 111.31 53.11
  L 110.45 54.01
  A 2.05 2.01 -46.0 0 0 110.47 56.88
  L 110.68 57.09
  A 2.05 2.01 -46.0 0 0 113.55 57.01
  L 114.42 56.11
  A 0.86 0.86 0.0 0 0 114.40 54.90
  Z"
/>
<path fill="#000000" d="
  M 114.40 54.90
  A 0.86 0.86 0.0 0 1 114.42 56.11
  L 113.55 57.01
  A 2.05 2.01 -46.0 0 1 110.68 57.09
  L 110.47 56.88
  A 2.05 2.01 -46.0 0 1 110.45 54.01
  L 111.31 53.11
  A 0.86 0.86 0.0 0 1 112.53 53.09
  L 114.40 54.90
  Z
  M 111.59 55.03
  A 0.42 0.42 0.0 0 0 111.40 55.81
  Q 112.03 56.18 112.72 55.92
  A 0.48 0.48 0.0 0 0 112.52 54.99
  L 111.59 55.03
  Z"
/>
<path fill="#ffffff" d="
  M 111.59 55.03
  L 112.52 54.99
  A 0.48 0.48 0.0 0 1 112.72 55.92
  Q 112.03 56.18 111.40 55.81
  A 0.42 0.42 0.0 0 1 111.59 55.03
  Z"
/>
<path fill="#ffffff" d="
  M 99.56 71.19
  Q 100.39 71.25 100.50 72.24
  A 0.42 0.42 0.0 0 1 99.82 72.61
  C 95.72 69.43 90.41 71.27 91.40 77.00
  Q 91.51 77.68 90.94 77.30
  L 88.94 75.95
  Q 88.47 75.64 88.73 75.13
  C 91.02 70.60 94.87 67.35 99.56 71.19
  Z"
/>
<path fill="#ffffff" d="
  M 118.11 81.03
  C 119.20 80.71 121.04 81.17 122.17 80.98
  C 128.17 79.94 128.37 75.68 131.04 71.47
  A 0.37 0.37 0.0 0 1 131.70 71.56
  L 134.07 79.77
  A 3.19 3.19 0.0 0 1 130.45 83.79
  L 118.14 81.64
  Q 116.82 81.41 118.11 81.03
  Z
  M 132.9051 81.3259
  A 2.13 1.99 20.5 0 0 131.6069 78.7160
  A 2.13 1.99 20.5 0 0 128.9149 79.8341
  A 2.13 1.99 20.5 0 0 130.2131 82.4440
  A 2.13 1.99 20.5 0 0 132.9051 81.3259
  Z"
/>
<path fill="#ffffff" d="
  M 111.31 81.00
  Q 111.64 81.15 111.78 81.54
  A 0.48 0.48 0.0 0 1 111.13 82.14
  L 99.99 77.07
  Q 99.52 76.86 99.16 77.24
  L 96.77 79.82
  Q 96.49 80.13 96.08 80.07
  C 91.87 79.52 90.39 72.61 95.71 71.98
  A 1.51 1.49 55.8 0 1 96.58 72.15
  Q 103.93 76.14 110.85 80.80
  Q 110.89 80.82 111.31 81.00
  Z
  M 97.87 75.46
  A 2.12 2.12 0.0 0 0 95.75 73.34
  A 2.12 2.12 0.0 0 0 93.63 75.46
  A 2.12 2.12 0.0 0 0 95.75 77.58
  A 2.12 2.12 0.0 0 0 97.87 75.46
  Z"
/>
<path fill="#000000" d="
  M 97.87 75.46
  A 2.12 2.12 0.0 0 1 95.75 77.58
  A 2.12 2.12 0.0 0 1 93.63 75.46
  A 2.12 2.12 0.0 0 1 95.75 73.34
  A 2.12 2.12 0.0 0 1 97.87 75.46
  Z
  M 95.45 76.49
  Q 96.33 76.69 96.79 75.69
  A 0.84 0.83 12.6 0 0 96.03 74.50
  L 95.31 74.50
  A 0.81 0.80 -0.7 0 0 94.50 75.32
  Q 94.52 76.28 95.45 76.49
  Z"
/>
<path fill="#ffffff" d="
  M 95.45 76.49
  Q 94.52 76.28 94.50 75.32
  A 0.81 0.80 -0.7 0 1 95.31 74.50
  L 96.03 74.50
  A 0.84 0.83 12.6 0 1 96.79 75.69
  Q 96.33 76.69 95.45 76.49
  Z"
/>
<path fill="#ffffff" d="
  M 104.90 80.26
  A 0.30 0.29 46.4 0 1 104.89 80.83
  Q 101.47 81.63 98.65 79.73
  Q 98.07 79.34 98.55 78.82
  Q 99.28 78.02 100.48 78.00
  A 1.38 1.33 -24.2 0 1 101.40 78.33
  Q 102.93 79.68 104.90 80.26
  Z"
/>
<path fill="#000000" d="
  M 132.9051 81.3259
  A 2.13 1.99 20.5 0 1 130.2131 82.4440
  A 2.13 1.99 20.5 0 1 128.9149 79.8341
  A 2.13 1.99 20.5 0 1 131.6069 78.7160
  A 2.13 1.99 20.5 0 1 132.9051 81.3259
  Z
  M 131.48 79.87
  Q 130.80 79.32 130.19 79.75
  A 0.93 0.93 0.0 0 0 131.00 81.40
  Q 131.68 81.18 131.77 80.67
  Q 131.87 80.18 131.48 79.87
  Z"
/>
<path fill="#ffffff" d="
  M 131.48 79.87
  Q 131.87 80.18 131.77 80.67
  Q 131.68 81.18 131.00 81.40
  A 0.93 0.93 0.0 0 1 130.19 79.75
  Q 130.80 79.32 131.48 79.87
  Z"
/>
</svg>
