<?xml version="1.0" encoding="UTF-8" standalone="no"?>
<!DOCTYPE svg PUBLIC "-//W3C//DTD SVG 1.1//EN" "http://www.w3.org/Graphics/SVG/1.1/DTD/svg11.dtd">
<svg xmlns="http://www.w3.org/2000/svg" version="1.1" viewBox="0.00 0.00 280.00 470.00">
<g stroke-width="2.00" fill="none" stroke-linecap="butt">
<path stroke="#808080" vector-effect="non-scaling-stroke" d="
  M 152.29 220.52
  Q 152.30 219.61 153.32 219.35
  A 0.56 0.55 -16.6 0 0 153.71 218.64
  C 152.66 215.53 154.31 213.52 154.67 211.27
  Q 157.23 195.25 159.72 179.21
  C 160.09 176.87 161.20 174.26 161.50 171.71
  C 161.99 167.45 162.67 163.24 163.17 158.98
  Q 163.23 158.46 163.52 158.01
  Q 164.65 156.25 163.27 154.65
  Q 162.92 154.25 162.96 153.72
  C 163.92 140.84 160.64 131.05 155.02 119.76
  Q 154.78 119.28 154.27 119.15
  Q 153.00 118.82 152.98 117.48
  Q 152.98 116.98 152.73 116.55
  Q 144.65 102.62 136.54 88.70
  C 136.09 87.93 134.21 87.09 133.39 86.19
  Q 112.82 63.67 92.32 41.08
  Q 92.00 40.73 92.00 40.26
  L 92.00 39.45
  A 1.33 1.33 0.0 0 0 91.61 38.51
  C 89.50 36.40 86.01 31.08 82.77 31.82
  A 1.19 1.19 0.0 0 1 81.32 30.79
  L 80.98 27.78
  A 0.88 0.86 2.8 0 0 80.29 27.03
  Q 78.98 26.75 78.04 27.56
  Q 77.62 27.93 77.06 27.95
  Q 68.42 28.21 59.78 28.53
  C 55.48 28.70 50.74 24.54 45.87 21.56
  C 42.19 19.31 38.35 19.18 37.19 24.07
  A 0.82 0.80 24.1 0 0 37.53 24.93
  Q 38.22 25.39 38.10 26.16
  Q 38.01 26.68 38.28 27.14
  Q 44.84 38.69 47.30 42.19
  C 48.92 44.52 52.48 47.04 54.54 49.30
  Q 84.03 81.59 113.38 114.02
  Q 122.75 124.37 126.01 129.48
  C 133.07 140.54 137.83 154.63 136.55 167.99
  Q 135.07 183.40 135.42 198.90
  Q 135.47 201.29 134.63 203.95
  Q 132.55 210.61 132.77 217.67
  A 0.56 0.55 89.0 0 1 132.22 218.25
  L 131.66 218.25
  A 0.53 0.52 -24.4 0 0 131.31 219.17
  L 132.26 219.99
  Q 132.50 220.20 132.51 220.52
  C 132.53 222.04 132.78 222.94 132.52 224.45
  C 131.59 229.85 130.00 239.64 131.24 245.76
  Q 131.34 246.23 131.82 246.24
  L 147.88 246.35
  Q 148.36 246.35 148.48 245.90
  Q 148.71 245.02 148.44 244.11
  Q 148.33 243.70 148.40 243.29
  L 152.26 222.97
  Q 152.37 222.35 153.00 222.26
  L 153.47 222.20
  A 0.42 0.42 0.0 0 0 153.54 221.38
  L 152.72 221.13
  A 0.63 0.62 -80.7 0 1 152.29 220.52"
/>
<path stroke="#808080" vector-effect="non-scaling-stroke" d="
  M 47.02 26.34
  L 60.98 33.79
  Q 61.70 34.17 61.25 33.49
  C 58.33 29.06 48.16 24.57 43.51 21.57
  C 39.94 19.27 37.08 23.41 39.15 26.90
  C 42.42 32.39 45.92 39.50 50.51 43.87
  A 0.29 0.29 0.0 0 0 50.97 43.53
  L 43.59 29.78
  A 2.54 2.54 0.0 0 1 47.02 26.34"
/>
<path stroke="#808080" vector-effect="non-scaling-stroke" d="
  M 48.86 35.78
  L 53.05 31.57
  A 0.26 0.26 0.0 0 0 53.05 31.20
  L 52.94 31.09
  A 8.18 3.15 44.9 0 0 44.92 27.55
  L 44.81 27.66
  A 8.18 3.15 44.9 0 0 48.38 35.67
  L 48.49 35.78
  A 0.26 0.26 0.0 0 0 48.86 35.78"
/>
<path stroke="#808080" vector-effect="non-scaling-stroke" d="
  M 75.16 30.63
  Q 74.96 30.21 74.96 29.98
  A 1.07 1.06 -9.5 0 0 73.55 28.98
  Q 69.07 30.48 65.25 29.94
  Q 64.71 29.87 64.43 30.20
  Q 64.08 30.62 64.61 30.72
  C 67.73 31.31 78.43 34.50 79.98 30.78
  Q 80.72 28.99 79.39 27.94
  A 0.51 0.51 0.0 0 0 78.58 28.48
  L 79.02 30.02
  A 0.78 0.76 64.7 0 1 78.73 30.86
  C 77.79 31.54 75.75 31.89 75.16 30.63"
/>
<path stroke="#808080" vector-effect="non-scaling-stroke" d="
  M 77.95 29.33
  Q 78.05 28.98 77.69 28.99
  L 76.34 29.03
  A 0.72 0.72 0.0 0 0 76.32 30.46
  Q 77.60 30.53 77.95 29.33"
/>
<path stroke="#808080" vector-effect="non-scaling-stroke" d="
  M 135.94 89.76
  C 134.13 86.65 130.84 88.16 129.48 90.56
  A 1.21 1.21 0.0 0 1 128.75 91.12
  Q 126.52 91.74 126.25 89.70
  Q 126.17 89.12 125.78 88.68
  Q 106.80 67.92 87.90 47.09
  Q 86.19 45.21 84.66 44.73
  Q 84.17 44.57 83.82 44.19
  L 78.76 38.70
  Q 78.37 38.27 78.39 37.68
  L 78.51 35.03
  A 0.89 0.88 -83.6 0 0 77.79 34.12
  L 61.72 31.12
  Q 60.88 30.96 61.41 31.62
  Q 64.86 35.88 68.92 39.58
  Q 93.26 61.75 117.74 83.76
  Q 120.81 86.51 125.58 89.99
  A 1.57 1.54 8.6 0 1 126.12 90.71
  Q 126.50 91.76 127.30 92.45
  Q 137.97 101.77 148.31 111.53
  A 0.17 0.17 0.0 0 0 148.57 111.32
  Q 142.26 100.63 135.94 89.76"
/>
<path stroke="#808080" vector-effect="non-scaling-stroke" d="
  M 53.85 44.66
  L 61.91 36.49
  A 0.28 0.28 0.0 0 0 61.91 36.09
  L 61.51 35.70
  A 8.04 3.83 44.6 0 0 53.10 32.78
  L 50.02 35.90
  A 8.04 3.83 44.6 0 0 53.06 44.27
  L 53.46 44.67
  A 0.28 0.28 0.0 0 0 53.85 44.66"
/>
<path stroke="#808080" vector-effect="non-scaling-stroke" d="
  M 80.03 32.59
  Q 79.21 32.96 78.74 33.74
  A 0.53 0.53 0.0 0 0 79.26 34.54
  Q 80.63 34.35 81.44 33.17
  A 0.84 0.78 2.4 0 0 80.33 32.05
  Q 80.21 32.11 80.19 32.37
  Q 80.18 32.53 80.03 32.59"
/>
<path stroke="#808080" vector-effect="non-scaling-stroke" d="
  M 85.9661 33.8979
  A 1.00 1.00 0.0 0 0 84.5549 33.8066
  L 80.4379 37.4234
  A 1.00 1.00 0.0 0 0 80.3467 38.8347
  L 84.2539 43.2821
  A 1.00 1.00 0.0 0 0 85.6651 43.3734
  L 89.7821 39.7566
  A 1.00 1.00 0.0 0 0 89.8733 38.3453
  L 85.9661 33.8979"
/>
<path stroke="#808080" vector-effect="non-scaling-stroke" d="
  M 63.5726 37.0112
  A 0.50 0.50 0.0 0 0 62.8655 37.0099
  L 54.2663 45.5792
  A 0.50 0.50 0.0 0 0 54.2650 46.2863
  L 54.3074 46.3288
  A 0.50 0.50 0.0 0 0 55.0145 46.3301
  L 63.6137 37.7608
  A 0.50 0.50 0.0 0 0 63.6150 37.0537
  L 63.5726 37.0112"
/>
<path stroke="#808080" vector-effect="non-scaling-stroke" d="
  M 64.97 38.07
  A 0.31 0.31 0.0 0 0 64.54 38.08
  L 55.35 47.24
  A 0.31 0.31 0.0 0 0 55.34 47.67
  L 104.68 102.01
  A 0.31 0.31 0.0 0 0 105.13 102.02
  L 119.36 87.76
  A 0.31 0.31 0.0 0 0 119.35 87.31
  L 64.97 38.07"
/>
<path stroke="#808080" vector-effect="non-scaling-stroke" d="
  M 91.1001 41.2305
  A 1.01 1.01 0.0 0 0 89.6733 41.1632
  L 87.2325 43.3841
  A 1.01 1.01 0.0 0 0 87.1652 44.8109
  L 126.1999 87.7095
  A 1.01 1.01 0.0 0 0 127.6267 87.7768
  L 130.0675 85.5559
  A 1.01 1.01 0.0 0 0 130.1348 84.1291
  L 91.1001 41.2305"
/>
<path stroke="#808080" vector-effect="non-scaling-stroke" d="
  M 132.20 86.40
  L 131.58 85.72
  A 0.18 0.18 0.0 0 0 131.33 85.70
  L 130.74 86.23
  A 4.27 0.52 -41.9 0 0 127.91 89.47
  L 128.07 89.65
  A 4.27 0.52 -41.9 0 0 131.60 87.18
  L 132.18 86.66
  A 0.18 0.18 0.0 0 0 132.20 86.40"
/>
<path stroke="#808080" vector-effect="non-scaling-stroke" d="
  M 141.77 135.29
  C 131.99 126.77 146.88 116.69 151.79 125.66
  C 154.17 129.99 152.04 134.65 147.31 136.11
  A 0.88 0.85 87.4 0 0 146.72 136.78
  L 141.02 169.23
  Q 140.95 169.67 141.38 169.79
  Q 147.46 171.44 153.73 170.89
  Q 154.28 170.84 154.28 170.29
  Q 154.17 147.90 154.34 125.50
  C 154.39 118.98 145.32 110.62 141.23 107.01
  Q 131.01 97.98 120.86 88.67
  Q 120.39 88.24 119.94 88.69
  L 106.05 102.58
  A 0.67 0.67 0.0 0 0 106.03 103.51
  C 121.92 120.49 134.39 133.77 138.15 157.33
  A 0.17 0.17 0.0 0 0 138.49 157.34
  L 142.07 136.12
  A 0.91 0.91 0.0 0 0 141.77 135.29"
/>
<path stroke="#808080" vector-effect="non-scaling-stroke" d="
  M 148.81 124.19
  C 142.84 120.29 136.06 128.76 141.63 133.79
  A 0.75 0.75 0.0 0 0 142.79 132.86
  C 140.18 128.31 144.01 122.40 148.20 126.11
  Q 151.54 129.07 147.53 133.17
  Q 146.06 134.67 148.16 134.63
  C 152.21 134.56 152.75 126.76 148.81 124.19"
/>
<path stroke="#808080" vector-effect="non-scaling-stroke" d="
  M 155.50 126.92
  L 155.45 170.40
  Q 155.45 170.85 155.89 170.88
  L 157.93 171.05
  Q 158.55 171.10 158.66 170.48
  C 161.93 152.94 163.24 140.58 155.97 125.44
  A 0.39 0.39 0.0 0 0 155.25 125.50
  Q 155.14 125.85 155.36 126.28
  Q 155.50 126.58 155.50 126.92"
/>
<path stroke="#808080" vector-effect="non-scaling-stroke" d="
  M 145.01 129.17
  L 145.26 129.71
  A 0.53 0.34 -77.6 0 0 145.89 129.08
  L 145.67 128.30
  Q 145.61 128.10 145.47 128.24
  L 145.12 128.59
  Q 144.86 128.85 145.01 129.17"
/>
<path stroke="#808080" vector-effect="non-scaling-stroke" d="
  M 144.66 131.39
  Q 144.40 130.82 144.04 131.08
  A 0.24 0.24 0.0 0 0 144.08 131.49
  Q 146.20 132.53 147.51 130.87
  Q 147.82 130.48 147.35 130.66
  Q 146.75 130.88 146.37 131.50
  A 0.98 0.98 0.0 0 1 144.66 131.39"
/>
<path stroke="#808080" vector-effect="non-scaling-stroke" d="
  M 145.80 133.30
  L 144.04 133.01
  A 0.49 0.49 0.0 0 0 143.48 133.41
  L 142.99 136.32
  A 34.36 0.55 -80.4 0 0 137.80 170.29
  L 139.44 170.56
  A 34.36 0.55 -80.4 0 0 145.71 136.78
  L 146.20 133.87
  A 0.49 0.49 0.0 0 0 145.80 133.30"
/>
<path stroke="#808080" vector-effect="non-scaling-stroke" d="
  M 157.8962 173.1241
  A 0.60 0.60 0.0 0 0 157.2827 172.5378
  L 137.6878 172.9825
  A 0.60 0.60 0.0 0 0 137.1015 173.5960
  L 137.1038 173.6959
  A 0.60 0.60 0.0 0 0 137.7173 174.2822
  L 157.3122 173.8375
  A 0.60 0.60 0.0 0 0 157.8985 173.2240
  L 157.8962 173.1241"
/>
<path stroke="#808080" vector-effect="non-scaling-stroke" d="
  M 150.95 179.83
  C 154.97 179.77 157.19 181.44 156.69 185.62
  A 0.32 0.32 0.0 0 0 157.20 185.91
  Q 157.62 185.59 157.69 184.98
  Q 158.19 180.47 157.96 175.88
  Q 157.93 175.34 157.39 175.36
  L 137.68 175.97
  A 0.77 0.76 86.2 0 0 136.94 176.82
  L 137.26 179.97
  Q 137.31 180.45 137.79 180.42
  Q 144.37 179.93 150.95 179.83"
/>
<path stroke="#808080" vector-effect="non-scaling-stroke" d="
  M 138.31 183.51
  L 136.16 217.00
  Q 136.12 217.57 136.69 217.55
  L 151.05 217.03
  Q 151.64 217.00 151.80 216.43
  C 155.10 204.69 153.97 194.86 153.98 183.61
  A 1.47 1.46 88.5 0 0 152.44 182.14
  L 138.98 182.85
  Q 138.35 182.88 138.31 183.51"
/>
<path stroke="#808080" vector-effect="non-scaling-stroke" d="
  M 134.9551 207.5841
  A 0.26 0.26 0.0 0 0 134.6978 207.3213
  L 134.4978 207.3193
  A 0.26 0.26 0.0 0 0 134.2351 207.5765
  L 134.1249 218.0959
  A 0.26 0.26 0.0 0 0 134.3822 218.3587
  L 134.5822 218.3607
  A 0.26 0.26 0.0 0 0 134.8449 218.1035
  L 134.9551 207.5841"
/>
<path stroke="#808080" vector-effect="non-scaling-stroke" d="
  M 151.3227 219.1694
  A 0.26 0.26 0.0 0 0 151.0469 218.9262
  L 134.3199 219.9786
  A 0.26 0.26 0.0 0 0 134.0768 220.2544
  L 134.1973 222.1706
  A 0.26 0.26 0.0 0 0 134.4731 222.4138
  L 151.2001 221.3614
  A 0.26 0.26 0.0 0 0 151.4432 221.0856
  L 151.3227 219.1694"
/>
<path stroke="#808080" vector-effect="non-scaling-stroke" d="
  M 133.19 223.93
  L 133.55 226.99
  A 0.22 0.22 0.0 0 0 133.79 227.18
  L 133.96 227.16
  A 17.37 1.46 -6.7 0 0 151.04 223.68
  L 150.97 223.09
  A 17.37 1.46 -6.7 0 0 133.55 223.66
  L 133.38 223.68
  A 0.22 0.22 0.0 0 0 133.19 223.93"
/>
<path stroke="#780e12" vector-effect="non-scaling-stroke" d="
  M 136.44 236.72
  Q 137.20 237.59 136.74 238.46"
/>
<path stroke="#808080" vector-effect="non-scaling-stroke" d="
  M 136.74 238.46
  L 132.63 239.02
  Q 131.97 239.11 131.98 239.77
  L 132.04 243.94
  A 0.56 0.56 0.0 0 0 132.62 244.49
  L 146.39 244.17
  Q 146.94 244.15 147.06 243.62
  L 148.80 235.56
  Q 148.93 234.98 148.36 235.16
  L 144.23 236.47"
/>
<path stroke="#780e12" vector-effect="non-scaling-stroke" d="
  M 144.23 236.47
  L 143.80 235.26"
/>
<path stroke="#808080" vector-effect="non-scaling-stroke" d="
  M 143.80 235.26
  Q 145.58 233.87 148.39 233.45
  Q 148.79 233.38 148.93 233.00
  Q 149.00 232.83 148.98 232.67
  Q 148.92 232.24 148.50 232.35
  L 143.30 233.74"
/>
<path stroke="#780e12" vector-effect="non-scaling-stroke" d="
  M 143.30 233.74
  Q 141.02 233.55 139.43 232.63"
/>
<path stroke="#808080" vector-effect="non-scaling-stroke" d="
  M 139.43 232.63
  Q 140.78 232.09 142.51 232.75
  A 1.35 1.33 -40.9 0 0 143.31 232.80
  L 148.85 231.41
  Q 149.45 231.26 149.57 230.65
  L 150.42 226.02
  Q 150.51 225.56 150.05 225.63
  L 133.62 228.12
  Q 132.96 228.22 132.90 228.89
  L 132.25 236.72
  Q 132.20 237.34 132.81 237.25
  L 136.44 236.72"
/>
<path stroke="#f78d91" vector-effect="non-scaling-stroke" d="
  M 139.43 232.63
  L 136.28 234.62"
/>
<path stroke="#808080" vector-effect="non-scaling-stroke" d="
  M 136.28 234.62
  Q 134.50 234.70 133.34 235.36
  Q 132.61 235.77 133.44 235.95
  Q 134.56 236.19 136.00 235.65"
/>
<path stroke="#f78d91" vector-effect="non-scaling-stroke" d="
  M 136.00 235.65
  Q 136.72 236.14 136.44 236.72"
/>
<path stroke="#f78d91" vector-effect="non-scaling-stroke" d="
  M 144.23 236.47
  C 143.85 240.99 139.14 240.86 136.74 238.46"
/>
<path stroke="#780e12" vector-effect="non-scaling-stroke" d="
  M 136.00 235.65
  Q 136.33 235.34 136.28 234.62"
/>
<path stroke="#f78d91" vector-effect="non-scaling-stroke" d="
  M 143.80 235.26
  L 143.30 233.74"
/>
<path stroke="#808080" vector-effect="non-scaling-stroke" d="
  M 43.90 24.48
  A 2.14 2.14 0.0 0 0 41.76 22.34
  A 2.14 2.14 0.0 0 0 39.62 24.48
  A 2.14 2.14 0.0 0 0 41.76 26.62
  A 2.14 2.14 0.0 0 0 43.90 24.48"
/>
<path stroke="#808080" vector-effect="non-scaling-stroke" d="
  M 41.88 23.45
  Q 41.24 23.18 40.86 23.77
  Q 40.16 24.83 41.21 25.50
  A 1.06 1.06 0.0 0 0 42.39 23.74
  Q 42.13 23.56 41.88 23.45"
/>
<path stroke="#808080" vector-effect="non-scaling-stroke" d="
  M 135.08 91.34
  A 2.01 2.01 0.0 0 0 133.07 89.33
  A 2.01 2.01 0.0 0 0 131.06 91.34
  A 2.01 2.01 0.0 0 0 133.07 93.35
  A 2.01 2.01 0.0 0 0 135.08 91.34"
/>
<path stroke="#808080" vector-effect="non-scaling-stroke" d="
  M 133.65 90.57
  Q 132.85 90.06 132.18 90.93
  A 0.82 0.81 -71.0 0 0 132.82 92.25
  L 133.39 92.25
  Q 134.00 92.25 134.00 91.64
  Q 134.00 91.42 134.00 91.20
  Q 134.00 90.79 133.65 90.57"
/>
</g>
<path fill="#ffffff" d="
  M 0.00 0.00
  L 280.00 0.00
  L 280.00 470.00
  L 0.00 470.00
  L 0.00 0.00
  Z
  M 152.29 220.52
  Q 152.30 219.61 153.32 219.35
  A 0.56 0.55 -16.6 0 0 153.71 218.64
  C 152.66 215.53 154.31 213.52 154.67 211.27
  Q 157.23 195.25 159.72 179.21
  C 160.09 176.87 161.20 174.26 161.50 171.71
  C 161.99 167.45 162.67 163.24 163.17 158.98
  Q 163.23 158.46 163.52 158.01
  Q 164.65 156.25 163.27 154.65
  Q 162.92 154.25 162.96 153.72
  C 163.92 140.84 160.64 131.05 155.02 119.76
  Q 154.78 119.28 154.27 119.15
  Q 153.00 118.82 152.98 117.48
  Q 152.98 116.98 152.73 116.55
  Q 144.65 102.62 136.54 88.70
  C 136.09 87.93 134.21 87.09 133.39 86.19
  Q 112.82 63.67 92.32 41.08
  Q 92.00 40.73 92.00 40.26
  L 92.00 39.45
  A 1.33 1.33 0.0 0 0 91.61 38.51
  C 89.50 36.40 86.01 31.08 82.77 31.82
  A 1.19 1.19 0.0 0 1 81.32 30.79
  L 80.98 27.78
  A 0.88 0.86 2.8 0 0 80.29 27.03
  Q 78.98 26.75 78.04 27.56
  Q 77.62 27.93 77.06 27.95
  Q 68.42 28.21 59.78 28.53
  C 55.48 28.70 50.74 24.54 45.87 21.56
  C 42.19 19.31 38.35 19.18 37.19 24.07
  A 0.82 0.80 24.1 0 0 37.53 24.93
  Q 38.22 25.39 38.10 26.16
  Q 38.01 26.68 38.28 27.14
  Q 44.84 38.69 47.30 42.19
  C 48.92 44.52 52.48 47.04 54.54 49.30
  Q 84.03 81.59 113.38 114.02
  Q 122.75 124.37 126.01 129.48
  C 133.07 140.54 137.83 154.63 136.55 167.99
  Q 135.07 183.40 135.42 198.90
  Q 135.47 201.29 134.63 203.95
  Q 132.55 210.61 132.77 217.67
  A 0.56 0.55 89.0 0 1 132.22 218.25
  L 131.66 218.25
  A 0.53 0.52 -24.4 0 0 131.31 219.17
  L 132.26 219.99
  Q 132.50 220.20 132.51 220.52
  C 132.53 222.04 132.78 222.94 132.52 224.45
  C 131.59 229.85 130.00 239.64 131.24 245.76
  Q 131.34 246.23 131.82 246.24
  L 147.88 246.35
  Q 148.36 246.35 148.48 245.90
  Q 148.71 245.02 148.44 244.11
  Q 148.33 243.70 148.40 243.29
  L 152.26 222.97
  Q 152.37 222.35 153.00 222.26
  L 153.47 222.20
  A 0.42 0.42 0.0 0 0 153.54 221.38
  L 152.72 221.13
  A 0.63 0.62 -80.7 0 1 152.29 220.52
  Z"
/>
<path fill="#000000" d="
  M 152.72 221.13
  L 153.54 221.38
  A 0.42 0.42 0.0 0 1 153.47 222.20
  L 153.00 222.26
  Q 152.37 222.35 152.26 222.97
  L 148.40 243.29
  Q 148.33 243.70 148.44 244.11
  Q 148.71 245.02 148.48 245.90
  Q 148.36 246.35 147.88 246.35
  L 131.82 246.24
  Q 131.34 246.23 131.24 245.76
  C 130.00 239.64 131.59 229.85 132.52 224.45
  C 132.78 222.94 132.53 222.04 132.51 220.52
  Q 132.50 220.20 132.26 219.99
  L 131.31 219.17
  A 0.53 0.52 -24.4 0 1 131.66 218.25
  L 132.22 218.25
  A 0.56 0.55 89.0 0 0 132.77 217.67
  Q 132.55 210.61 134.63 203.95
  Q 135.47 201.29 135.42 198.90
  Q 135.07 183.40 136.55 167.99
  C 137.83 154.63 133.07 140.54 126.01 129.48
  Q 122.75 124.37 113.38 114.02
  Q 84.03 81.59 54.54 49.30
  C 52.48 47.04 48.92 44.52 47.30 42.19
  Q 44.84 38.69 38.28 27.14
  Q 38.01 26.68 38.10 26.16
  Q 38.22 25.39 37.53 24.93
  A 0.82 0.80 24.1 0 1 37.19 24.07
  C 38.35 19.18 42.19 19.31 45.87 21.56
  C 50.74 24.54 55.48 28.70 59.78 28.53
  Q 68.42 28.21 77.06 27.95
  Q 77.62 27.93 78.04 27.56
  Q 78.98 26.75 80.29 27.03
  A 0.88 0.86 2.8 0 1 80.98 27.78
  L 81.32 30.79
  A 1.19 1.19 0.0 0 0 82.77 31.82
  C 86.01 31.08 89.50 36.40 91.61 38.51
  A 1.33 1.33 0.0 0 1 92.00 39.45
  L 92.00 40.26
  Q 92.00 40.73 92.32 41.08
  Q 112.82 63.67 133.39 86.19
  C 134.21 87.09 136.09 87.93 136.54 88.70
  Q 144.65 102.62 152.73 116.55
  Q 152.98 116.98 152.98 117.48
  Q 153.00 118.82 154.27 119.15
  Q 154.78 119.28 155.02 119.76
  C 160.64 131.05 163.92 140.84 162.96 153.72
  Q 162.92 154.25 163.27 154.65
  Q 164.65 156.25 163.52 158.01
  Q 163.23 158.46 163.17 158.98
  C 162.67 163.24 161.99 167.45 161.50 171.71
  C 161.20 174.26 160.09 176.87 159.72 179.21
  Q 157.23 195.25 154.67 211.27
  C 154.31 213.52 152.66 215.53 153.71 218.64
  A 0.56 0.55 -16.6 0 1 153.32 219.35
  Q 152.30 219.61 152.29 220.52
  A 0.63 0.62 -80.7 0 0 152.72 221.13
  Z
  M 47.02 26.34
  L 60.98 33.79
  Q 61.70 34.17 61.25 33.49
  C 58.33 29.06 48.16 24.57 43.51 21.57
  C 39.94 19.27 37.08 23.41 39.15 26.90
  C 42.42 32.39 45.92 39.50 50.51 43.87
  A 0.29 0.29 0.0 0 0 50.97 43.53
  L 43.59 29.78
  A 2.54 2.54 0.0 0 1 47.02 26.34
  Z
  M 48.86 35.78
  L 53.05 31.57
  A 0.26 0.26 0.0 0 0 53.05 31.20
  L 52.94 31.09
  A 8.18 3.15 44.9 0 0 44.92 27.55
  L 44.81 27.66
  A 8.18 3.15 44.9 0 0 48.38 35.67
  L 48.49 35.78
  A 0.26 0.26 0.0 0 0 48.86 35.78
  Z
  M 75.16 30.63
  Q 74.96 30.21 74.96 29.98
  A 1.07 1.06 -9.5 0 0 73.55 28.98
  Q 69.07 30.48 65.25 29.94
  Q 64.71 29.87 64.43 30.20
  Q 64.08 30.62 64.61 30.72
  C 67.73 31.31 78.43 34.50 79.98 30.78
  Q 80.72 28.99 79.39 27.94
  A 0.51 0.51 0.0 0 0 78.58 28.48
  L 79.02 30.02
  A 0.78 0.76 64.7 0 1 78.73 30.86
  C 77.79 31.54 75.75 31.89 75.16 30.63
  Z
  M 77.95 29.33
  Q 78.05 28.98 77.69 28.99
  L 76.34 29.03
  A 0.72 0.72 0.0 0 0 76.32 30.46
  Q 77.60 30.53 77.95 29.33
  Z
  M 135.94 89.76
  C 134.13 86.65 130.84 88.16 129.48 90.56
  A 1.21 1.21 0.0 0 1 128.75 91.12
  Q 126.52 91.74 126.25 89.70
  Q 126.17 89.12 125.78 88.68
  Q 106.80 67.92 87.90 47.09
  Q 86.19 45.21 84.66 44.73
  Q 84.17 44.57 83.82 44.19
  L 78.76 38.70
  Q 78.37 38.27 78.39 37.68
  L 78.51 35.03
  A 0.89 0.88 -83.6 0 0 77.79 34.12
  L 61.72 31.12
  Q 60.88 30.96 61.41 31.62
  Q 64.86 35.88 68.92 39.58
  Q 93.26 61.75 117.74 83.76
  Q 120.81 86.51 125.58 89.99
  A 1.57 1.54 8.6 0 1 126.12 90.71
  Q 126.50 91.76 127.30 92.45
  Q 137.97 101.77 148.31 111.53
  A 0.17 0.17 0.0 0 0 148.57 111.32
  Q 142.26 100.63 135.94 89.76
  Z
  M 53.85 44.66
  L 61.91 36.49
  A 0.28 0.28 0.0 0 0 61.91 36.09
  L 61.51 35.70
  A 8.04 3.83 44.6 0 0 53.10 32.78
  L 50.02 35.90
  A 8.04 3.83 44.6 0 0 53.06 44.27
  L 53.46 44.67
  A 0.28 0.28 0.0 0 0 53.85 44.66
  Z
  M 80.03 32.59
  Q 79.21 32.96 78.74 33.74
  A 0.53 0.53 0.0 0 0 79.26 34.54
  Q 80.63 34.35 81.44 33.17
  A 0.84 0.78 2.4 0 0 80.33 32.05
  Q 80.21 32.11 80.19 32.37
  Q 80.18 32.53 80.03 32.59
  Z
  M 85.9661 33.8979
  A 1.00 1.00 0.0 0 0 84.5549 33.8066
  L 80.4379 37.4234
  A 1.00 1.00 0.0 0 0 80.3467 38.8347
  L 84.2539 43.2821
  A 1.00 1.00 0.0 0 0 85.6651 43.3734
  L 89.7821 39.7566
  A 1.00 1.00 0.0 0 0 89.8733 38.3453
  L 85.9661 33.8979
  Z
  M 63.5726 37.0112
  A 0.50 0.50 0.0 0 0 62.8655 37.0099
  L 54.2663 45.5792
  A 0.50 0.50 0.0 0 0 54.2650 46.2863
  L 54.3074 46.3288
  A 0.50 0.50 0.0 0 0 55.0145 46.3301
  L 63.6137 37.7608
  A 0.50 0.50 0.0 0 0 63.6150 37.0537
  L 63.5726 37.0112
  Z
  M 64.97 38.07
  A 0.31 0.31 0.0 0 0 64.54 38.08
  L 55.35 47.24
  A 0.31 0.31 0.0 0 0 55.34 47.67
  L 104.68 102.01
  A 0.31 0.31 0.0 0 0 105.13 102.02
  L 119.36 87.76
  A 0.31 0.31 0.0 0 0 119.35 87.31
  L 64.97 38.07
  Z
  M 91.1001 41.2305
  A 1.01 1.01 0.0 0 0 89.6733 41.1632
  L 87.2325 43.3841
  A 1.01 1.01 0.0 0 0 87.1652 44.8109
  L 126.1999 87.7095
  A 1.01 1.01 0.0 0 0 127.6267 87.7768
  L 130.0675 85.5559
  A 1.01 1.01 0.0 0 0 130.1348 84.1291
  L 91.1001 41.2305
  Z
  M 132.20 86.40
  L 131.58 85.72
  A 0.18 0.18 0.0 0 0 131.33 85.70
  L 130.74 86.23
  A 4.27 0.52 -41.9 0 0 127.91 89.47
  L 128.07 89.65
  A 4.27 0.52 -41.9 0 0 131.60 87.18
  L 132.18 86.66
  A 0.18 0.18 0.0 0 0 132.20 86.40
  Z
  M 141.77 135.29
  C 131.99 126.77 146.88 116.69 151.79 125.66
  C 154.17 129.99 152.04 134.65 147.31 136.11
  A 0.88 0.85 87.4 0 0 146.72 136.78
  L 141.02 169.23
  Q 140.95 169.67 141.38 169.79
  Q 147.46 171.44 153.73 170.89
  Q 154.28 170.84 154.28 170.29
  Q 154.17 147.90 154.34 125.50
  C 154.39 118.98 145.32 110.62 141.23 107.01
  Q 131.01 97.98 120.86 88.67
  Q 120.39 88.24 119.94 88.69
  L 106.05 102.58
  A 0.67 0.67 0.0 0 0 106.03 103.51
  C 121.92 120.49 134.39 133.77 138.15 157.33
  A 0.17 0.17 0.0 0 0 138.49 157.34
  L 142.07 136.12
  A 0.91 0.91 0.0 0 0 141.77 135.29
  Z
  M 148.81 124.19
  C 142.84 120.29 136.06 128.76 141.63 133.79
  A 0.75 0.75 0.0 0 0 142.79 132.86
  C 140.18 128.31 144.01 122.40 148.20 126.11
  Q 151.54 129.07 147.53 133.17
  Q 146.06 134.67 148.16 134.63
  C 152.21 134.56 152.75 126.76 148.81 124.19
  Z
  M 155.50 126.92
  L 155.45 170.40
  Q 155.45 170.85 155.89 170.88
  L 157.93 171.05
  Q 158.55 171.10 158.66 170.48
  C 161.93 152.94 163.24 140.58 155.97 125.44
  A 0.39 0.39 0.0 0 0 155.25 125.50
  Q 155.14 125.85 155.36 126.28
  Q 155.50 126.58 155.50 126.92
  Z
  M 145.01 129.17
  L 145.26 129.71
  A 0.53 0.34 -77.6 0 0 145.89 129.08
  L 145.67 128.30
  Q 145.61 128.10 145.47 128.24
  L 145.12 128.59
  Q 144.86 128.85 145.01 129.17
  Z
  M 144.66 131.39
  Q 144.40 130.82 144.04 131.08
  A 0.24 0.24 0.0 0 0 144.08 131.49
  Q 146.20 132.53 147.51 130.87
  Q 147.82 130.48 147.35 130.66
  Q 146.75 130.88 146.37 131.50
  A 0.98 0.98 0.0 0 1 144.66 131.39
  Z
  M 145.80 133.30
  L 144.04 133.01
  A 0.49 0.49 0.0 0 0 143.48 133.41
  L 142.99 136.32
  A 34.36 0.55 -80.4 0 0 137.80 170.29
  L 139.44 170.56
  A 34.36 0.55 -80.4 0 0 145.71 136.78
  L 146.20 133.87
  A 0.49 0.49 0.0 0 0 145.80 133.30
  Z
  M 157.8962 173.1241
  A 0.60 0.60 0.0 0 0 157.2827 172.5378
  L 137.6878 172.9825
  A 0.60 0.60 0.0 0 0 137.1015 173.5960
  L 137.1038 173.6959
  A 0.60 0.60 0.0 0 0 137.7173 174.2822
  L 157.3122 173.8375
  A 0.60 0.60 0.0 0 0 157.8985 173.2240
  L 157.8962 173.1241
  Z
  M 150.95 179.83
  C 154.97 179.77 157.19 181.44 156.69 185.62
  A 0.32 0.32 0.0 0 0 157.20 185.91
  Q 157.62 185.59 157.69 184.98
  Q 158.19 180.47 157.96 175.88
  Q 157.93 175.34 157.39 175.36
  L 137.68 175.97
  A 0.77 0.76 86.2 0 0 136.94 176.82
  L 137.26 179.97
  Q 137.31 180.45 137.79 180.42
  Q 144.37 179.93 150.95 179.83
  Z
  M 138.31 183.51
  L 136.16 217.00
  Q 136.12 217.57 136.69 217.55
  L 151.05 217.03
  Q 151.64 217.00 151.80 216.43
  C 155.10 204.69 153.97 194.86 153.98 183.61
  A 1.47 1.46 88.5 0 0 152.44 182.14
  L 138.98 182.85
  Q 138.35 182.88 138.31 183.51
  Z
  M 134.9551 207.5841
  A 0.26 0.26 0.0 0 0 134.6978 207.3213
  L 134.4978 207.3193
  A 0.26 0.26 0.0 0 0 134.2351 207.5765
  L 134.1249 218.0959
  A 0.26 0.26 0.0 0 0 134.3822 218.3587
  L 134.5822 218.3607
  A 0.26 0.26 0.0 0 0 134.8449 218.1035
  L 134.9551 207.5841
  Z
  M 151.3227 219.1694
  A 0.26 0.26 0.0 0 0 151.0469 218.9262
  L 134.3199 219.9786
  A 0.26 0.26 0.0 0 0 134.0768 220.2544
  L 134.1973 222.1706
  A 0.26 0.26 0.0 0 0 134.4731 222.4138
  L 151.2001 221.3614
  A 0.26 0.26 0.0 0 0 151.4432 221.0856
  L 151.3227 219.1694
  Z
  M 133.19 223.93
  L 133.55 226.99
  A 0.22 0.22 0.0 0 0 133.79 227.18
  L 133.96 227.16
  A 17.37 1.46 -6.7 0 0 151.04 223.68
  L 150.97 223.09
  A 17.37 1.46 -6.7 0 0 133.55 223.66
  L 133.38 223.68
  A 0.22 0.22 0.0 0 0 133.19 223.93
  Z
  M 136.44 236.72
  Q 137.20 237.59 136.74 238.46
  L 132.63 239.02
  Q 131.97 239.11 131.98 239.77
  L 132.04 243.94
  A 0.56 0.56 0.0 0 0 132.62 244.49
  L 146.39 244.17
  Q 146.94 244.15 147.06 243.62
  L 148.80 235.56
  Q 148.93 234.98 148.36 235.16
  L 144.23 236.47
  L 143.80 235.26
  Q 145.58 233.87 148.39 233.45
  Q 148.79 233.38 148.93 233.00
  Q 149.00 232.83 148.98 232.67
  Q 148.92 232.24 148.50 232.35
  L 143.30 233.74
  Q 141.02 233.55 139.43 232.63
  Q 140.78 232.09 142.51 232.75
  A 1.35 1.33 -40.9 0 0 143.31 232.80
  L 148.85 231.41
  Q 149.45 231.26 149.57 230.65
  L 150.42 226.02
  Q 150.51 225.56 150.05 225.63
  L 133.62 228.12
  Q 132.96 228.22 132.90 228.89
  L 132.25 236.72
  Q 132.20 237.34 132.81 237.25
  L 136.44 236.72
  Z"
/>
<path fill="#ffffff" d="
  M 60.98 33.79
  L 47.02 26.34
  A 2.54 2.54 0.0 0 0 43.59 29.78
  L 50.97 43.53
  A 0.29 0.29 0.0 0 1 50.51 43.87
  C 45.92 39.50 42.42 32.39 39.15 26.90
  C 37.08 23.41 39.94 19.27 43.51 21.57
  C 48.16 24.57 58.33 29.06 61.25 33.49
  Q 61.70 34.17 60.98 33.79
  Z
  M 43.90 24.48
  A 2.14 2.14 0.0 0 0 41.76 22.34
  A 2.14 2.14 0.0 0 0 39.62 24.48
  A 2.14 2.14 0.0 0 0 41.76 26.62
  A 2.14 2.14 0.0 0 0 43.90 24.48
  Z"
/>
<path fill="#000000" d="
  M 43.90 24.48
  A 2.14 2.14 0.0 0 1 41.76 26.62
  A 2.14 2.14 0.0 0 1 39.62 24.48
  A 2.14 2.14 0.0 0 1 41.76 22.34
  A 2.14 2.14 0.0 0 1 43.90 24.48
  Z
  M 41.88 23.45
  Q 41.24 23.18 40.86 23.77
  Q 40.16 24.83 41.21 25.50
  A 1.06 1.06 0.0 0 0 42.39 23.74
  Q 42.13 23.56 41.88 23.45
  Z"
/>
<path fill="#ffffff" d="
  M 41.88 23.45
  Q 42.13 23.56 42.39 23.74
  A 1.06 1.06 0.0 0 1 41.21 25.50
  Q 40.16 24.83 40.86 23.77
  Q 41.24 23.18 41.88 23.45
  Z"
/>
<path fill="#ffffff" d="
  M 48.86 35.78
  A 0.26 0.26 0.0 0 1 48.49 35.78
  L 48.38 35.67
  A 8.18 3.15 44.9 0 1 44.81 27.66
  L 44.92 27.55
  A 8.18 3.15 44.9 0 1 52.94 31.09
  L 53.05 31.20
  A 0.26 0.26 0.0 0 1 53.05 31.57
  L 48.86 35.78
  Z"
/>
<path fill="#ffffff" d="
  M 75.16 30.63
  C 75.75 31.89 77.79 31.54 78.73 30.86
  A 0.78 0.76 64.7 0 0 79.02 30.02
  L 78.58 28.48
  A 0.51 0.51 0.0 0 1 79.39 27.94
  Q 80.72 28.99 79.98 30.78
  C 78.43 34.50 67.73 31.31 64.61 30.72
  Q 64.08 30.62 64.43 30.20
  Q 64.71 29.87 65.25 29.94
  Q 69.07 30.48 73.55 28.98
  A 1.07 1.06 -9.5 0 1 74.96 29.98
  Q 74.96 30.21 75.16 30.63
  Z"
/>
<path fill="#ffffff" d="
  M 77.95 29.33
  Q 77.60 30.53 76.32 30.46
  A 0.72 0.72 0.0 0 1 76.34 29.03
  L 77.69 28.99
  Q 78.05 28.98 77.95 29.33
  Z"
/>
<path fill="#ffffff" d="
  M 129.48 90.56
  C 130.84 88.16 134.13 86.65 135.94 89.76
  Q 142.26 100.63 148.57 111.32
  A 0.17 0.17 0.0 0 1 148.31 111.53
  Q 137.97 101.77 127.30 92.45
  Q 126.50 91.76 126.12 90.71
  A 1.57 1.54 8.6 0 0 125.58 89.99
  Q 120.81 86.51 117.74 83.76
  Q 93.26 61.75 68.92 39.58
  Q 64.86 35.88 61.41 31.62
  Q 60.88 30.96 61.72 31.12
  L 77.79 34.12
  A 0.89 0.88 -83.6 0 1 78.51 35.03
  L 78.39 37.68
  Q 78.37 38.27 78.76 38.70
  L 83.82 44.19
  Q 84.17 44.57 84.66 44.73
  Q 86.19 45.21 87.90 47.09
  Q 106.80 67.92 125.78 88.68
  Q 126.17 89.12 126.25 89.70
  Q 126.52 91.74 128.75 91.12
  A 1.21 1.21 0.0 0 0 129.48 90.56
  Z
  M 135.08 91.34
  A 2.01 2.01 0.0 0 0 133.07 89.33
  A 2.01 2.01 0.0 0 0 131.06 91.34
  A 2.01 2.01 0.0 0 0 133.07 93.35
  A 2.01 2.01 0.0 0 0 135.08 91.34
  Z"
/>
<path fill="#ffffff" d="
  M 53.85 44.66
  A 0.28 0.28 0.0 0 1 53.46 44.67
  L 53.06 44.27
  A 8.04 3.83 44.6 0 1 50.02 35.90
  L 53.10 32.78
  A 8.04 3.83 44.6 0 1 61.51 35.70
  L 61.91 36.09
  A 0.28 0.28 0.0 0 1 61.91 36.49
  L 53.85 44.66
  Z"
/>
<path fill="#ffffff" d="
  M 80.19 32.37
  Q 80.21 32.11 80.33 32.05
  A 0.84 0.78 2.4 0 1 81.44 33.17
  Q 80.63 34.35 79.26 34.54
  A 0.53 0.53 0.0 0 1 78.74 33.74
  Q 79.21 32.96 80.03 32.59
  Q 80.18 32.53 80.19 32.37
  Z"
/>
<rect fill="#ffffff" x="-3.74" y="-3.96" transform="translate(85.11,38.59) rotate(-41.3)" width="7.48" height="7.92" rx="1.00"/>
<rect fill="#ffffff" x="-6.57" y="-0.53" transform="translate(58.94,41.67) rotate(-44.9)" width="13.14" height="1.06" rx="0.50"/>
<path fill="#ffffff" d="
  M 64.97 38.07
  L 119.35 87.31
  A 0.31 0.31 0.0 0 1 119.36 87.76
  L 105.13 102.02
  A 0.31 0.31 0.0 0 1 104.68 102.01
  L 55.34 47.67
  A 0.31 0.31 0.0 0 1 55.35 47.24
  L 64.54 38.08
  A 0.31 0.31 0.0 0 1 64.97 38.07
  Z"
/>
<rect fill="#ffffff" x="-2.66" y="-30.01" transform="translate(108.65,64.47) rotate(-42.3)" width="5.32" height="60.02" rx="1.01"/>
<path fill="#ffffff" d="
  M 132.20 86.40
  A 0.18 0.18 0.0 0 1 132.18 86.66
  L 131.60 87.18
  A 4.27 0.52 -41.9 0 1 128.07 89.65
  L 127.91 89.47
  A 4.27 0.52 -41.9 0 1 130.74 86.23
  L 131.33 85.70
  A 0.18 0.18 0.0 0 1 131.58 85.72
  L 132.20 86.40
  Z"
/>
<path fill="#ffffff" d="
  M 141.77 135.29
  A 0.91 0.91 0.0 0 1 142.07 136.12
  L 138.49 157.34
  A 0.17 0.17 0.0 0 1 138.15 157.33
  C 134.39 133.77 121.92 120.49 106.03 103.51
  A 0.67 0.67 0.0 0 1 106.05 102.58
  L 119.94 88.69
  Q 120.39 88.24 120.86 88.67
  Q 131.01 97.98 141.23 107.01
  C 145.32 110.62 154.39 118.98 154.34 125.50
  Q 154.17 147.90 154.28 170.29
  Q 154.28 170.84 153.73 170.89
  Q 147.46 171.44 141.38 169.79
  Q 140.95 169.67 141.02 169.23
  L 146.72 136.78
  A 0.88 0.85 87.4 0 1 147.31 136.11
  C 152.04 134.65 154.17 129.99 151.79 125.66
  C 146.88 116.69 131.99 126.77 141.77 135.29
  Z"
/>
<path fill="#000000" d="
  M 135.08 91.34
  A 2.01 2.01 0.0 0 1 133.07 93.35
  A 2.01 2.01 0.0 0 1 131.06 91.34
  A 2.01 2.01 0.0 0 1 133.07 89.33
  A 2.01 2.01 0.0 0 1 135.08 91.34
  Z
  M 133.65 90.57
  Q 132.85 90.06 132.18 90.93
  A 0.82 0.81 -71.0 0 0 132.82 92.25
  L 133.39 92.25
  Q 134.00 92.25 134.00 91.64
  Q 134.00 91.42 134.00 91.20
  Q 134.00 90.79 133.65 90.57
  Z"
/>
<path fill="#ffffff" d="
  M 133.65 90.57
  Q 134.00 90.79 134.00 91.20
  Q 134.00 91.42 134.00 91.64
  Q 134.00 92.25 133.39 92.25
  L 132.82 92.25
  A 0.82 0.81 -71.0 0 1 132.18 90.93
  Q 132.85 90.06 133.65 90.57
  Z"
/>
<path fill="#ffffff" d="
  M 148.81 124.19
  C 152.75 126.76 152.21 134.56 148.16 134.63
  Q 146.06 134.67 147.53 133.17
  Q 151.54 129.07 148.20 126.11
  C 144.01 122.40 140.18 128.31 142.79 132.86
  A 0.75 0.75 0.0 0 1 141.63 133.79
  C 136.06 128.76 142.84 120.29 148.81 124.19
  Z"
/>
<path fill="#ffffff" d="
  M 155.36 126.28
  Q 155.14 125.85 155.25 125.50
  A 0.39 0.39 0.0 0 1 155.97 125.44
  C 163.24 140.58 161.93 152.94 158.66 170.48
  Q 158.55 171.10 157.93 171.05
  L 155.89 170.88
  Q 155.45 170.85 155.45 170.40
  L 155.50 126.92
  Q 155.50 126.58 155.36 126.28
  Z"
/>
<path fill="#ffffff" d="
  M 145.12 128.59
  L 145.47 128.24
  Q 145.61 128.10 145.67 128.30
  L 145.89 129.08
  A 0.53 0.34 -77.6 0 1 145.26 129.71
  L 145.01 129.17
  Q 144.86 128.85 145.12 128.59
  Z"
/>
<path fill="#ffffff" d="
  M 144.66 131.39
  A 0.98 0.98 0.0 0 0 146.37 131.50
  Q 146.75 130.88 147.35 130.66
  Q 147.82 130.48 147.51 130.87
  Q 146.20 132.53 144.08 131.49
  A 0.24 0.24 0.0 0 1 144.04 131.08
  Q 144.40 130.82 144.66 131.39
  Z"
/>
<path fill="#ffffff" d="
  M 145.80 133.30
  A 0.49 0.49 0.0 0 1 146.20 133.87
  L 145.71 136.78
  A 34.36 0.55 -80.4 0 1 139.44 170.56
  L 137.80 170.29
  A 34.36 0.55 -80.4 0 1 142.99 136.32
  L 143.48 133.41
  A 0.49 0.49 0.0 0 1 144.04 133.01
  L 145.80 133.30
  Z"
/>
<rect fill="#ffffff" x="-10.40" y="-0.65" transform="translate(147.50,173.41) rotate(-1.3)" width="20.80" height="1.30" rx="0.60"/>
<path fill="#ffffff" d="
  M 150.95 179.83
  Q 144.37 179.93 137.79 180.42
  Q 137.31 180.45 137.26 179.97
  L 136.94 176.82
  A 0.77 0.76 86.2 0 1 137.68 175.97
  L 157.39 175.36
  Q 157.93 175.34 157.96 175.88
  Q 158.19 180.47 157.69 184.98
  Q 157.62 185.59 157.20 185.91
  A 0.32 0.32 0.0 0 1 156.69 185.62
  C 157.19 181.44 154.97 179.77 150.95 179.83
  Z"
/>
<path fill="#ffffff" d="
  M 136.16 217.00
  L 138.31 183.51
  Q 138.35 182.88 138.98 182.85
  L 152.44 182.14
  A 1.47 1.46 88.5 0 1 153.98 183.61
  C 153.97 194.86 155.10 204.69 151.80 216.43
  Q 151.64 217.00 151.05 217.03
  L 136.69 217.55
  Q 136.12 217.57 136.16 217.00
  Z"
/>
<rect fill="#ffffff" x="-0.36" y="-5.52" transform="translate(134.54,212.84) rotate(0.6)" width="0.72" height="11.04" rx="0.26"/>
<rect fill="#ffffff" x="-8.64" y="-1.22" transform="translate(142.76,220.67) rotate(-3.6)" width="17.28" height="2.44" rx="0.26"/>
<path fill="#ffffff" d="
  M 133.19 223.93
  A 0.22 0.22 0.0 0 1 133.38 223.68
  L 133.55 223.66
  A 17.37 1.46 -6.7 0 1 150.97 223.09
  L 151.04 223.68
  A 17.37 1.46 -6.7 0 1 133.96 227.16
  L 133.79 227.18
  A 0.22 0.22 0.0 0 1 133.55 226.99
  L 133.19 223.93
  Z"
/>
<path fill="#ffffff" d="
  M 139.43 232.63
  L 136.28 234.62
  Q 134.50 234.70 133.34 235.36
  Q 132.61 235.77 133.44 235.95
  Q 134.56 236.19 136.00 235.65
  Q 136.72 236.14 136.44 236.72
  L 132.81 237.25
  Q 132.20 237.34 132.25 236.72
  L 132.90 228.89
  Q 132.96 228.22 133.62 228.12
  L 150.05 225.63
  Q 150.51 225.56 150.42 226.02
  L 149.57 230.65
  Q 149.45 231.26 148.85 231.41
  L 143.31 232.80
  A 1.35 1.33 -40.9 0 1 142.51 232.75
  Q 140.78 232.09 139.43 232.63
  Z"
/>
<path fill="#ffffff" d="
  M 143.80 235.26
  L 143.30 233.74
  L 148.50 232.35
  Q 148.92 232.24 148.98 232.67
  Q 149.00 232.83 148.93 233.00
  Q 148.79 233.38 148.39 233.45
  Q 145.58 233.87 143.80 235.26
  Z"
/>
<path fill="#ef1b23" d="
  M 139.43 232.63
  Q 141.02 233.55 143.30 233.74
  L 143.80 235.26
  L 144.23 236.47
  C 143.85 240.99 139.14 240.86 136.74 238.46
  Q 137.20 237.59 136.44 236.72
  Q 136.72 236.14 136.00 235.65
  Q 136.33 235.34 136.28 234.62
  L 139.43 232.63
  Z"
/>
<path fill="#000000" d="
  M 136.28 234.62
  Q 136.33 235.34 136.00 235.65
  Q 134.56 236.19 133.44 235.95
  Q 132.61 235.77 133.34 235.36
  Q 134.50 234.70 136.28 234.62
  Z"
/>
<path fill="#ffffff" d="
  M 136.74 238.46
  C 139.14 240.86 143.85 240.99 144.23 236.47
  L 148.36 235.16
  Q 148.93 234.98 148.80 235.56
  L 147.06 243.62
  Q 146.94 244.15 146.39 244.17
  L 132.62 244.49
  A 0.56 0.56 0.0 0 1 132.04 243.94
  L 131.98 239.77
  Q 131.97 239.11 132.63 239.02
  L 136.74 238.46
  Z"
/>
</svg>
