<?xml version="1.0" encoding="UTF-8" standalone="no"?>
<!DOCTYPE svg PUBLIC "-//W3C//DTD SVG 1.1//EN" "http://www.w3.org/Graphics/SVG/1.1/DTD/svg11.dtd">
<svg xmlns="http://www.w3.org/2000/svg" version="1.1" viewBox="0.00 0.00 100.00 130.00">
<g stroke-width="2.00" fill="none" stroke-linecap="butt">
<path stroke="#808080" vector-effect="non-scaling-stroke" d="
  M 33.29 9.24
  L 36.74 10.34
  Q 37.43 10.56 36.77 10.86
  Q 35.62 11.37 35.21 12.62
  Q 35.07 13.05 34.62 13.00
  Q 33.22 12.87 33.15 14.18
  Q 33.03 16.27 34.63 20.13
  Q 34.82 20.60 35.23 20.88
  C 47.71 29.29 47.72 42.94 48.02 56.74
  Q 48.03 57.28 47.70 57.70
  Q 44.78 61.45 45.82 66.14
  Q 45.94 66.69 45.54 67.08
  L 45.31 67.31
  A 0.26 0.26 0.0 0 0 45.50 67.75
  L 46.14 67.75
  Q 46.58 67.75 46.91 68.05
  Q 49.99 70.84 53.58 68.69
  Q 54.08 68.39 54.64 68.59
  Q 56.18 69.14 56.70 67.54
  Q 56.87 67.04 57.37 66.87
  Q 62.09 65.31 66.78 66.53
  C 71.71 67.82 72.40 65.82 73.01 61.48
  C 73.50 57.94 78.00 56.49 76.48 53.28
  Q 76.28 52.83 76.38 52.35
  C 77.19 48.47 79.53 44.75 80.32 41.71
  C 85.16 23.02 66.21 20.54 54.06 16.48
  C 46.87 14.08 39.31 9.83 31.30 7.53
  A 0.79 0.79 0.0 0 0 30.57 8.88
  L 34.45 12.23
  A 0.26 0.25 56.6 0 0 34.67 12.28
  Q 34.84 12.23 34.98 12.16
  Q 35.47 11.94 35.08 11.58
  L 33.03 9.68
  A 0.26 0.26 0.0 0 1 33.29 9.24"
/>
<path stroke="#808080" vector-effect="non-scaling-stroke" d="
  M 48.29 15.94
  A 0.22 0.22 0.0 0 0 48.55 15.65
  L 48.45 15.36
  Q 48.39 15.16 48.19 15.16
  Q 44.16 15.01 41.06 12.60
  Q 40.40 12.08 40.28 12.92
  L 40.25 13.18
  Q 40.18 13.73 40.72 13.73
  Q 41.83 13.73 42.63 14.51
  A 0.62 0.60 -14.8 0 0 42.86 14.64
  L 48.29 15.94"
/>
<path stroke="#808080" vector-effect="non-scaling-stroke" d="
  M 35.32 14.02
  A 0.56 0.56 0.0 0 0 34.52 14.47
  Q 34.26 17.51 35.89 20.10
  A 0.69 0.69 0.0 0 0 37.09 19.43
  C 36.12 17.49 37.03 14.85 35.32 14.02"
/>
<path stroke="#808080" vector-effect="non-scaling-stroke" d="
  M 38.94 15.88
  Q 38.51 15.69 38.06 15.72
  Q 37.56 15.76 37.54 16.26
  Q 37.35 20.30 40.37 22.73
  Q 41.01 23.24 41.02 22.42
  Q 41.03 20.99 40.24 19.78
  Q 39.89 19.23 40.38 18.81
  L 41.96 17.47
  A 0.43 0.42 47.1 0 0 41.98 16.84
  Q 41.02 15.88 39.65 16.00
  Q 39.28 16.03 38.94 15.88"
/>
<path stroke="#808080" vector-effect="non-scaling-stroke" d="
  M 44.45 16.80
  C 47.61 19.71 48.49 20.46 48.89 24.92
  A 1.71 1.71 0.0 0 1 47.43 26.77
  L 43.53 27.32
  Q 42.98 27.40 43.28 27.87
  C 49.33 37.27 48.74 45.89 49.00 56.57
  Q 49.05 59.03 51.31 60.02
  L 58.89 63.34
  A 0.54 0.54 0.0 0 0 59.63 62.73
  L 49.25 17.82
  A 0.89 0.88 1.2 0 0 48.62 17.17
  L 44.81 16.14
  A 0.39 0.39 0.0 0 0 44.45 16.80"
/>
<path stroke="#808080" vector-effect="non-scaling-stroke" d="
  M 52.51 24.81
  C 60.11 24.37 72.72 26.91 78.09 33.66
  A 0.60 0.60 0.0 0 0 79.13 33.11
  C 75.80 22.56 62.56 20.66 50.70 17.36
  Q 50.19 17.22 50.31 17.74
  L 51.79 24.27
  A 0.70 0.70 0.0 0 0 52.51 24.81"
/>
<path stroke="#808080" vector-effect="non-scaling-stroke" d="
  M 44.66 21.42
  Q 45.24 20.38 44.73 19.40
  A 0.38 0.37 32.1 0 0 44.02 19.56
  L 43.99 21.24
  Q 43.96 22.68 44.66 21.42"
/>
<path stroke="#808080" vector-effect="non-scaling-stroke" d="
  M 45.41 23.42
  L 44.80 25.19
  A 0.54 0.54 0.0 0 0 45.81 25.58
  Q 46.30 24.45 46.14 23.48
  A 0.38 0.38 0.0 0 0 45.41 23.42"
/>
<path stroke="#808080" vector-effect="non-scaling-stroke" d="
  M 77.30 34.55
  C 73.64 28.67 58.46 24.69 52.84 26.01
  Q 52.30 26.13 52.42 26.68
  L 60.55 62.49
  A 0.62 0.61 57.8 0 0 61.63 62.74
  Q 66.40 56.73 71.94 51.55
  C 77.55 46.30 80.45 43.04 79.71 35.66
  Q 79.64 35.00 78.97 35.00
  L 78.11 35.00
  Q 77.58 35.00 77.30 34.55"
/>
<path stroke="#808080" vector-effect="non-scaling-stroke" d="
  M 54.25 63.42
  L 54.31 62.97
  Q 54.37 62.55 53.99 62.38
  L 50.83 60.96
  A 1.08 1.06 50.4 0 0 50.15 60.89
  Q 49.17 61.11 48.88 59.91
  Q 48.72 59.25 48.74 58.75
  A 0.33 0.33 0.0 0 0 48.11 58.58
  C 46.30 62.12 45.02 69.02 51.48 68.49
  Q 53.13 68.35 54.16 66.52
  Q 54.39 66.11 54.85 66.13
  Q 57.23 66.18 59.33 65.08
  Q 59.81 64.84 60.34 64.86
  C 63.83 65.04 69.85 67.27 71.93 63.74
  A 1.21 1.21 0.0 0 0 72.08 62.99
  Q 71.57 59.29 74.19 56.95
  Q 74.95 56.27 73.93 56.34
  Q 72.63 56.43 72.03 55.61
  A 1.66 1.41 -88.0 0 1 74.11 53.34
  Q 74.42 53.69 74.84 53.74
  Q 75.17 53.78 75.22 53.45
  L 75.66 50.43
  A 0.29 0.28 74.9 0 0 75.20 50.16
  Q 68.06 56.09 62.44 63.45
  A 1.67 1.66 -77.3 0 1 61.48 64.06
  Q 58.08 64.83 55.26 62.75
  A 0.29 0.28 -88.9 0 0 54.86 63.14
  Q 55.08 63.47 54.64 63.70
  Q 54.18 63.93 54.25 63.42"
/>
<path stroke="#808080" vector-effect="non-scaling-stroke" d="
  M 70.69 62.36
  A 2.02 2.02 0.0 0 0 68.67 60.34
  A 2.02 2.02 0.0 0 0 66.65 62.36
  A 2.02 2.02 0.0 0 0 68.67 64.38
  A 2.02 2.02 0.0 0 0 70.69 62.36"
/>
<path stroke="#808080" vector-effect="non-scaling-stroke" d="
  M 52.3301 63.9959
  A 2.10 2.01 -25.2 0 0 49.5742 63.0713
  A 2.10 2.01 -25.2 0 0 48.5299 65.7841
  A 2.10 2.01 -25.2 0 0 51.2858 66.7087
  A 2.10 2.01 -25.2 0 0 52.3301 63.9959"
/>
<path stroke="#808080" vector-effect="non-scaling-stroke" d="
  M 68.75 61.35
  A 0.39 0.38 28.2 0 0 68.18 61.52
  Q 67.59 62.91 68.30 63.28
  A 1.04 0.84 -8.2 0 0 69.59 61.90
  L 68.75 61.35"
/>
<path stroke="#808080" vector-effect="non-scaling-stroke" d="
  M 51.54 64.73
  A 0.47 0.47 0.0 0 0 51.15 64.03
  L 49.98 63.99
  A 0.53 0.53 0.0 0 0 49.50 64.78
  L 50.03 65.71
  A 0.54 0.54 0.0 0 0 50.97 65.71
  L 51.54 64.73"
/>
</g>
<path fill="#ffffff" d="
  M 0.00 0.00
  L 100.00 0.00
  L 100.00 130.00
  L 0.00 130.00
  L 0.00 0.00
  Z
  M 33.29 9.24
  L 36.74 10.34
  Q 37.43 10.56 36.77 10.86
  Q 35.62 11.37 35.21 12.62
  Q 35.07 13.05 34.62 13.00
  Q 33.22 12.87 33.15 14.18
  Q 33.03 16.27 34.63 20.13
  Q 34.82 20.60 35.23 20.88
  C 47.71 29.29 47.72 42.94 48.02 56.74
  Q 48.03 57.28 47.70 57.70
  Q 44.78 61.45 45.82 66.14
  Q 45.94 66.69 45.54 67.08
  L 45.31 67.31
  A 0.26 0.26 0.0 0 0 45.50 67.75
  L 46.14 67.75
  Q 46.58 67.75 46.91 68.05
  Q 49.99 70.84 53.58 68.69
  Q 54.08 68.39 54.64 68.59
  Q 56.18 69.14 56.70 67.54
  Q 56.87 67.04 57.37 66.87
  Q 62.09 65.31 66.78 66.53
  C 71.71 67.82 72.40 65.82 73.01 61.48
  C 73.50 57.94 78.00 56.49 76.48 53.28
  Q 76.28 52.83 76.38 52.35
  C 77.19 48.47 79.53 44.75 80.32 41.71
  C 85.16 23.02 66.21 20.54 54.06 16.48
  C 46.87 14.08 39.31 9.83 31.30 7.53
  A 0.79 0.79 0.0 0 0 30.57 8.88
  L 34.45 12.23
  A 0.26 0.25 56.6 0 0 34.67 12.28
  Q 34.84 12.23 34.98 12.16
  Q 35.47 11.94 35.08 11.58
  L 33.03 9.68
  A 0.26 0.26 0.0 0 1 33.29 9.24
  Z"
/>
<path fill="#000000" d="
  M 33.03 9.68
  L 35.08 11.58
  Q 35.47 11.94 34.98 12.16
  Q 34.84 12.23 34.67 12.28
  A 0.26 0.25 56.6 0 1 34.45 12.23
  L 30.57 8.88
  A 0.79 0.79 0.0 0 1 31.30 7.53
  C 39.31 9.83 46.87 14.08 54.06 16.48
  C 66.21 20.54 85.16 23.02 80.32 41.71
  C 79.53 44.75 77.19 48.47 76.38 52.35
  Q 76.28 52.83 76.48 53.28
  C 78.00 56.49 73.50 57.94 73.01 61.48
  C 72.40 65.82 71.71 67.82 66.78 66.53
  Q 62.09 65.31 57.37 66.87
  Q 56.87 67.04 56.70 67.54
  Q 56.18 69.14 54.64 68.59
  Q 54.08 68.39 53.58 68.69
  Q 49.99 70.84 46.91 68.05
  Q 46.58 67.75 46.14 67.75
  L 45.50 67.75
  A 0.26 0.26 0.0 0 1 45.31 67.31
  L 45.54 67.08
  Q 45.94 66.69 45.82 66.14
  Q 44.78 61.45 47.70 57.70
  Q 48.03 57.28 48.02 56.74
  C 47.72 42.94 47.71 29.29 35.23 20.88
  Q 34.82 20.60 34.63 20.13
  Q 33.03 16.27 33.15 14.18
  Q 33.22 12.87 34.62 13.00
  Q 35.07 13.05 35.21 12.62
  Q 35.62 11.37 36.77 10.86
  Q 37.43 10.56 36.74 10.34
  L 33.29 9.24
  A 0.26 0.26 0.0 0 0 33.03 9.68
  Z
  M 48.29 15.94
  A 0.22 0.22 0.0 0 0 48.55 15.65
  L 48.45 15.36
  Q 48.39 15.16 48.19 15.16
  Q 44.16 15.01 41.06 12.60
  Q 40.40 12.08 40.28 12.92
  L 40.25 13.18
  Q 40.18 13.73 40.72 13.73
  Q 41.83 13.73 42.63 14.51
  A 0.62 0.60 -14.8 0 0 42.86 14.64
  L 48.29 15.94
  Z
  M 35.32 14.02
  A 0.56 0.56 0.0 0 0 34.52 14.47
  Q 34.26 17.51 35.89 20.10
  A 0.69 0.69 0.0 0 0 37.09 19.43
  C 36.12 17.49 37.03 14.85 35.32 14.02
  Z
  M 38.94 15.88
  Q 38.51 15.69 38.06 15.72
  Q 37.56 15.76 37.54 16.26
  Q 37.35 20.30 40.37 22.73
  Q 41.01 23.24 41.02 22.42
  Q 41.03 20.99 40.24 19.78
  Q 39.89 19.23 40.38 18.81
  L 41.96 17.47
  A 0.43 0.42 47.1 0 0 41.98 16.84
  Q 41.02 15.88 39.65 16.00
  Q 39.28 16.03 38.94 15.88
  Z
  M 44.45 16.80
  C 47.61 19.71 48.49 20.46 48.89 24.92
  A 1.71 1.71 0.0 0 1 47.43 26.77
  L 43.53 27.32
  Q 42.98 27.40 43.28 27.87
  C 49.33 37.27 48.74 45.89 49.00 56.57
  Q 49.05 59.03 51.31 60.02
  L 58.89 63.34
  A 0.54 0.54 0.0 0 0 59.63 62.73
  L 49.25 17.82
  A 0.89 0.88 1.2 0 0 48.62 17.17
  L 44.81 16.14
  A 0.39 0.39 0.0 0 0 44.45 16.80
  Z
  M 52.51 24.81
  C 60.11 24.37 72.72 26.91 78.09 33.66
  A 0.60 0.60 0.0 0 0 79.13 33.11
  C 75.80 22.56 62.56 20.66 50.70 17.36
  Q 50.19 17.22 50.31 17.74
  L 51.79 24.27
  A 0.70 0.70 0.0 0 0 52.51 24.81
  Z
  M 44.66 21.42
  Q 45.24 20.38 44.73 19.40
  A 0.38 0.37 32.1 0 0 44.02 19.56
  L 43.99 21.24
  Q 43.96 22.68 44.66 21.42
  Z
  M 45.41 23.42
  L 44.80 25.19
  A 0.54 0.54 0.0 0 0 45.81 25.58
  Q 46.30 24.45 46.14 23.48
  A 0.38 0.38 0.0 0 0 45.41 23.42
  Z
  M 77.30 34.55
  C 73.64 28.67 58.46 24.69 52.84 26.01
  Q 52.30 26.13 52.42 26.68
  L 60.55 62.49
  A 0.62 0.61 57.8 0 0 61.63 62.74
  Q 66.40 56.73 71.94 51.55
  C 77.55 46.30 80.45 43.04 79.71 35.66
  Q 79.64 35.00 78.97 35.00
  L 78.11 35.00
  Q 77.58 35.00 77.30 34.55
  Z
  M 54.25 63.42
  L 54.31 62.97
  Q 54.37 62.55 53.99 62.38
  L 50.83 60.96
  A 1.08 1.06 50.4 0 0 50.15 60.89
  Q 49.17 61.11 48.88 59.91
  Q 48.72 59.25 48.74 58.75
  A 0.33 0.33 0.0 0 0 48.11 58.58
  C 46.30 62.12 45.02 69.02 51.48 68.49
  Q 53.13 68.35 54.16 66.52
  Q 54.39 66.11 54.85 66.13
  Q 57.23 66.18 59.33 65.08
  Q 59.81 64.84 60.34 64.86
  C 63.83 65.04 69.85 67.27 71.93 63.74
  A 1.21 1.21 0.0 0 0 72.08 62.99
  Q 71.57 59.29 74.19 56.95
  Q 74.95 56.27 73.93 56.34
  Q 72.63 56.43 72.03 55.61
  A 1.66 1.41 -88.0 0 1 74.11 53.34
  Q 74.42 53.69 74.84 53.74
  Q 75.17 53.78 75.22 53.45
  L 75.66 50.43
  A 0.29 0.28 74.9 0 0 75.20 50.16
  Q 68.06 56.09 62.44 63.45
  A 1.67 1.66 -77.3 0 1 61.48 64.06
  Q 58.08 64.83 55.26 62.75
  A 0.29 0.28 -88.9 0 0 54.86 63.14
  Q 55.08 63.47 54.64 63.70
  Q 54.18 63.93 54.25 63.42
  Z"
/>
<path fill="#ffffff" d="
  M 48.29 15.94
  L 42.86 14.64
  A 0.62 0.60 -14.8 0 1 42.63 14.51
  Q 41.83 13.73 40.72 13.73
  Q 40.18 13.73 40.25 13.18
  L 40.28 12.92
  Q 40.40 12.08 41.06 12.60
  Q 44.16 15.01 48.19 15.16
  Q 48.39 15.16 48.45 15.36
  L 48.55 15.65
  A 0.22 0.22 0.0 0 1 48.29 15.94
  Z"
/>
<path fill="#ffffff" d="
  M 35.32 14.02
  C 37.03 14.85 36.12 17.49 37.09 19.43
  A 0.69 0.69 0.0 0 1 35.89 20.10
  Q 34.26 17.51 34.52 14.47
  A 0.56 0.56 0.0 0 1 35.32 14.02
  Z"
/>
<path fill="#ffffff" d="
  M 39.65 16.00
  Q 41.02 15.88 41.98 16.84
  A 0.43 0.42 47.1 0 1 41.96 17.47
  L 40.38 18.81
  Q 39.89 19.23 40.24 19.78
  Q 41.03 20.99 41.02 22.42
  Q 41.01 23.24 40.37 22.73
  Q 37.35 20.30 37.54 16.26
  Q 37.56 15.76 38.06 15.72
  Q 38.51 15.69 38.94 15.88
  Q 39.28 16.03 39.65 16.00
  Z"
/>
<path fill="#ffffff" d="
  M 48.89 24.92
  C 48.49 20.46 47.61 19.71 44.45 16.80
  A 0.39 0.39 0.0 0 1 44.81 16.14
  L 48.62 17.17
  A 0.89 0.88 1.2 0 1 49.25 17.82
  L 59.63 62.73
  A 0.54 0.54 0.0 0 1 58.89 63.34
  L 51.31 60.02
  Q 49.05 59.03 49.00 56.57
  C 48.74 45.89 49.33 37.27 43.28 27.87
  Q 42.98 27.40 43.53 27.32
  L 47.43 26.77
  A 1.71 1.71 0.0 0 0 48.89 24.92
  Z"
/>
<path fill="#ffffff" d="
  M 78.09 33.66
  C 72.72 26.91 60.11 24.37 52.51 24.81
  A 0.70 0.70 0.0 0 1 51.79 24.27
  L 50.31 17.74
  Q 50.19 17.22 50.70 17.36
  C 62.56 20.66 75.80 22.56 79.13 33.11
  A 0.60 0.60 0.0 0 1 78.09 33.66
  Z"
/>
<path fill="#ffffff" d="
  M 44.66 21.42
  Q 43.96 22.68 43.99 21.24
  L 44.02 19.56
  A 0.38 0.37 32.1 0 1 44.73 19.40
  Q 45.24 20.38 44.66 21.42
  Z"
/>
<path fill="#ffffff" d="
  M 45.41 23.42
  A 0.38 0.38 0.0 0 1 46.14 23.48
  Q 46.30 24.45 45.81 25.58
  A 0.54 0.54 0.0 0 1 44.80 25.19
  L 45.41 23.42
  Z"
/>
<path fill="#ffffff" d="
  M 78.11 35.00
  L 78.97 35.00
  Q 79.64 35.00 79.71 35.66
  C 80.45 43.04 77.55 46.30 71.94 51.55
  Q 66.40 56.73 61.63 62.74
  A 0.62 0.61 57.8 0 1 60.55 62.49
  L 52.42 26.68
  Q 52.30 26.13 52.84 26.01
  C 58.46 24.69 73.64 28.67 77.30 34.55
  Q 77.58 35.00 78.11 35.00
  Z"
/>
<path fill="#ffffff" d="
  M 54.64 63.70
  Q 55.08 63.47 54.86 63.14
  A 0.29 0.28 -88.9 0 1 55.26 62.75
  Q 58.08 64.83 61.48 64.06
  A 1.67 1.66 -77.3 0 0 62.44 63.45
  Q 68.06 56.09 75.20 50.16
  A 0.29 0.28 74.9 0 1 75.66 50.43
  L 75.22 53.45
  Q 75.17 53.78 74.84 53.74
  Q 74.42 53.69 74.11 53.34
  A 1.66 1.41 -88.0 0 0 72.03 55.61
  Q 72.63 56.43 73.93 56.34
  Q 74.95 56.27 74.19 56.95
  Q 71.57 59.29 72.08 62.99
  A 1.21 1.21 0.0 0 1 71.93 63.74
  C 69.85 67.27 63.83 65.04 60.34 64.86
  Q 59.81 64.84 59.33 65.08
  Q 57.23 66.18 54.85 66.13
  Q 54.39 66.11 54.16 66.52
  Q 53.13 68.35 51.48 68.49
  C 45.02 69.02 46.30 62.12 48.11 58.58
  A 0.33 0.33 0.0 0 1 48.74 58.75
  Q 48.72 59.25 48.88 59.91
  Q 49.17 61.11 50.15 60.89
  A 1.08 1.06 50.4 0 1 50.83 60.96
  L 53.99 62.38
  Q 54.37 62.55 54.31 62.97
  L 54.25 63.42
  Q 54.18 63.93 54.64 63.70
  Z
  M 70.69 62.36
  A 2.02 2.02 0.0 0 0 68.67 60.34
  A 2.02 2.02 0.0 0 0 66.65 62.36
  A 2.02 2.02 0.0 0 0 68.67 64.38
  A 2.02 2.02 0.0 0 0 70.69 62.36
  Z
  M 52.3301 63.9959
  A 2.10 2.01 -25.2 0 0 49.5742 63.0713
  A 2.10 2.01 -25.2 0 0 48.5299 65.7841
  A 2.10 2.01 -25.2 0 0 51.2858 66.7087
  A 2.10 2.01 -25.2 0 0 52.3301 63.9959
  Z"
/>
<path fill="#000000" d="
  M 70.69 62.36
  A 2.02 2.02 0.0 0 1 68.67 64.38
  A 2.02 2.02 0.0 0 1 66.65 62.36
  A 2.02 2.02 0.0 0 1 68.67 60.34
  A 2.02 2.02 0.0 0 1 70.69 62.36
  Z
  M 68.75 61.35
  A 0.39 0.38 28.2 0 0 68.18 61.52
  Q 67.59 62.91 68.30 63.28
  A 1.04 0.84 -8.2 0 0 69.59 61.90
  L 68.75 61.35
  Z"
/>
<path fill="#ffffff" d="
  M 68.75 61.35
  L 69.59 61.90
  A 1.04 0.84 -8.2 0 1 68.30 63.28
  Q 67.59 62.91 68.18 61.52
  A 0.39 0.38 28.2 0 1 68.75 61.35
  Z"
/>
<path fill="#000000" d="
  M 52.3301 63.9959
  A 2.10 2.01 -25.2 0 1 51.2858 66.7087
  A 2.10 2.01 -25.2 0 1 48.5299 65.7841
  A 2.10 2.01 -25.2 0 1 49.5742 63.0713
  A 2.10 2.01 -25.2 0 1 52.3301 63.9959
  Z
  M 51.54 64.73
  A 0.47 0.47 0.0 0 0 51.15 64.03
  L 49.98 63.99
  A 0.53 0.53 0.0 0 0 49.50 64.78
  L 50.03 65.71
  A 0.54 0.54 0.0 0 0 50.97 65.71
  L 51.54 64.73
  Z"
/>
<path fill="#ffffff" d="
  M 51.54 64.73
  L 50.97 65.71
  A 0.54 0.54 0.0 0 1 50.03 65.71
  L 49.50 64.78
  A 0.53 0.53 0.0 0 1 49.98 63.99
  L 51.15 64.03
  A 0.47 0.47 0.0 0 1 51.54 64.73
  Z"
/>
</svg>
